<svg width="184" height="35" viewBox="0 0 184 35" fill="none" xmlns="http://www.w3.org/2000/svg">
<path d="M19.32 16.816C21.208 17.168 22.76 18.112 23.976 19.648C25.192 21.184 25.8 22.944 25.8 24.928C25.8 26.72 25.352 28.304 24.456 29.68C23.592 31.024 22.328 32.08 20.664 32.848C19 33.616 17.032 34 14.76 34H0.312V0.495999H14.136C16.408 0.495999 18.36 0.863999 19.992 1.6C21.656 2.336 22.904 3.36 23.736 4.672C24.6 5.984 25.032 7.472 25.032 9.136C25.032 11.088 24.504 12.72 23.448 14.032C22.424 15.344 21.048 16.272 19.32 16.816ZM7.032 14.32H13.176C14.776 14.32 16.008 13.968 16.872 13.264C17.736 12.528 18.168 11.488 18.168 10.144C18.168 8.8 17.736 7.76 16.872 7.024C16.008 6.288 14.776 5.92 13.176 5.92H7.032V14.32ZM13.8 28.528C15.432 28.528 16.696 28.144 17.592 27.376C18.52 26.608 18.984 25.52 18.984 24.112C18.984 22.672 18.504 21.552 17.544 20.752C16.584 19.92 15.288 19.504 13.656 19.504H7.032V28.528H13.8ZM56.2598 7.408V34H49.4918V30.64C48.6278 31.792 47.4918 32.704 46.0838 33.376C44.7078 34.016 43.2038 34.336 41.5718 34.336C39.4918 34.336 37.6518 33.904 36.0518 33.04C34.4518 32.144 33.1878 30.848 32.2598 29.152C31.3638 27.424 30.9158 25.376 30.9158 23.008V7.408H37.6358V22.048C37.6358 24.16 38.1638 25.792 39.2198 26.944C40.2758 28.064 41.7158 28.624 43.5398 28.624C45.3958 28.624 46.8518 28.064 47.9078 26.944C48.9638 25.792 49.4918 24.16 49.4918 22.048V7.408H56.2598ZM70.7141 12.928V25.792C70.7141 26.688 70.9221 27.344 71.3381 27.76C71.7861 28.144 72.5221 28.336 73.5461 28.336H76.6661V34H72.4421C66.7781 34 63.9461 31.248 63.9461 25.744V12.928H60.7781V7.408H63.9461V0.831998H70.7141V7.408H76.6661V12.928H70.7141ZM89.3235 12.928V25.792C89.3235 26.688 89.5315 27.344 89.9475 27.76C90.3955 28.144 91.1315 28.336 92.1555 28.336H95.2755V34H91.0515C85.3875 34 82.5555 31.248 82.5555 25.744V12.928H79.3875V7.408H82.5555V0.831998H89.3235V7.408H95.2755V12.928H89.3235ZM111.917 34.432C109.357 34.432 107.053 33.872 105.005 32.752C102.957 31.6 101.341 29.984 100.157 27.904C99.0049 25.824 98.4289 23.424 98.4289 20.704C98.4289 17.984 99.0209 15.584 100.205 13.504C101.421 11.424 103.069 9.824 105.149 8.704C107.229 7.552 109.549 6.976 112.109 6.976C114.669 6.976 116.989 7.552 119.069 8.704C121.149 9.824 122.781 11.424 123.965 13.504C125.181 15.584 125.789 17.984 125.789 20.704C125.789 23.424 125.165 25.824 123.917 27.904C122.701 29.984 121.037 31.6 118.925 32.752C116.845 33.872 114.509 34.432 111.917 34.432ZM111.917 28.576C113.133 28.576 114.269 28.288 115.325 27.712C116.413 27.104 117.277 26.208 117.917 25.024C118.557 23.84 118.877 22.4 118.877 20.704C118.877 18.176 118.205 16.24 116.861 14.896C115.549 13.52 113.933 12.832 112.013 12.832C110.093 12.832 108.477 13.52 107.165 14.896C105.885 16.24 105.245 18.176 105.245 20.704C105.245 23.232 105.869 25.184 107.117 26.56C108.397 27.904 109.997 28.576 111.917 28.576ZM145.454 7.024C148.622 7.024 151.182 8.032 153.134 10.048C155.086 12.032 156.062 14.816 156.062 18.4V34H149.342V19.312C149.342 17.2 148.814 15.584 147.758 14.464C146.702 13.312 145.262 12.736 143.438 12.736C141.582 12.736 140.11 13.312 139.022 14.464C137.966 15.584 137.438 17.2 137.438 19.312V34H130.718V7.408H137.438V10.72C138.334 9.568 139.47 8.672 140.846 8.032C142.254 7.36 143.79 7.024 145.454 7.024ZM172.629 34.432C170.453 34.432 168.501 34.048 166.773 33.28C165.045 32.48 163.669 31.408 162.645 30.064C161.653 28.72 161.109 27.232 161.013 25.6H167.781C167.909 26.624 168.405 27.472 169.269 28.144C170.165 28.816 171.269 29.152 172.581 29.152C173.861 29.152 174.853 28.896 175.557 28.384C176.293 27.872 176.661 27.216 176.661 26.416C176.661 25.552 176.213 24.912 175.317 24.496C174.453 24.048 173.061 23.568 171.141 23.056C169.157 22.576 167.525 22.08 166.245 21.568C164.997 21.056 163.909 20.272 162.981 19.216C162.085 18.16 161.637 16.736 161.637 14.944C161.637 13.472 162.053 12.128 162.885 10.912C163.749 9.696 164.965 8.736 166.533 8.032C168.133 7.328 170.005 6.976 172.149 6.976C175.317 6.976 177.845 7.776 179.733 9.376C181.621 10.944 182.661 13.072 182.853 15.76H176.421C176.325 14.704 175.877 13.872 175.077 13.264C174.309 12.624 173.269 12.304 171.957 12.304C170.741 12.304 169.797 12.528 169.125 12.976C168.485 13.424 168.165 14.048 168.165 14.848C168.165 15.744 168.613 16.432 169.509 16.912C170.405 17.36 171.797 17.824 173.685 18.304C175.605 18.784 177.189 19.28 178.437 19.792C179.685 20.304 180.757 21.104 181.653 22.192C182.581 23.248 183.061 24.656 183.093 26.416C183.093 27.952 182.661 29.328 181.797 30.544C180.965 31.76 179.749 32.72 178.149 33.424C176.581 34.096 174.741 34.432 172.629 34.432Z" fill="white"/>
</svg>
