<svg width="85" height="24" viewBox="0 0 85 24" fill="none" xmlns="http://www.w3.org/2000/svg">
<path d="M41.396 6.462L36.392 18H34.322L39.38 6.678H32.72V4.932H41.396V6.462ZM44.2503 18.126C43.8783 18.126 43.5663 18 43.3143 17.748C43.0623 17.496 42.9363 17.184 42.9363 16.812C42.9363 16.44 43.0623 16.128 43.3143 15.876C43.5663 15.624 43.8783 15.498 44.2503 15.498C44.6103 15.498 44.9163 15.624 45.1683 15.876C45.4203 16.128 45.5463 16.44 45.5463 16.812C45.5463 17.184 45.4203 17.496 45.1683 17.748C44.9163 18 44.6103 18.126 44.2503 18.126ZM49.7081 11.142C48.4601 10.518 47.8361 9.534 47.8361 8.19C47.8361 7.542 47.9981 6.948 48.3221 6.408C48.6461 5.868 49.1321 5.442 49.7801 5.13C50.4281 4.806 51.2201 4.644 52.1561 4.644C53.0801 4.644 53.8661 4.806 54.5141 5.13C55.1741 5.442 55.6661 5.868 55.9901 6.408C56.3141 6.948 56.4761 7.542 56.4761 8.19C56.4761 8.862 56.3021 9.456 55.9541 9.972C55.6181 10.476 55.1681 10.866 54.6041 11.142C55.2881 11.394 55.8281 11.808 56.2241 12.384C56.6201 12.948 56.8181 13.614 56.8181 14.382C56.8181 15.162 56.6201 15.852 56.2241 16.452C55.8281 17.052 55.2761 17.514 54.5681 17.838C53.8601 18.162 53.0561 18.324 52.1561 18.324C51.2561 18.324 50.4521 18.162 49.7441 17.838C49.0481 17.514 48.5021 17.052 48.1061 16.452C47.7101 15.852 47.5121 15.162 47.5121 14.382C47.5121 13.602 47.7101 12.93 48.1061 12.366C48.5021 11.802 49.0361 11.394 49.7081 11.142ZM54.5141 8.442C54.5141 7.77 54.3041 7.254 53.8841 6.894C53.4641 6.534 52.8881 6.354 52.1561 6.354C51.4361 6.354 50.8661 6.534 50.4461 6.894C50.0261 7.254 49.8161 7.776 49.8161 8.46C49.8161 9.06 50.0321 9.552 50.4641 9.936C50.9081 10.308 51.4721 10.494 52.1561 10.494C52.8401 10.494 53.4041 10.302 53.8481 9.918C54.2921 9.534 54.5141 9.042 54.5141 8.442ZM52.1561 12.042C51.3641 12.042 50.7161 12.24 50.2121 12.636C49.7201 13.02 49.4741 13.578 49.4741 14.31C49.4741 14.994 49.7141 15.552 50.1941 15.984C50.6741 16.404 51.3281 16.614 52.1561 16.614C52.9721 16.614 53.6141 16.398 54.0821 15.966C54.5621 15.534 54.8021 14.982 54.8021 14.31C54.8021 13.59 54.5561 13.032 54.0641 12.636C53.5841 12.24 52.9481 12.042 52.1561 12.042ZM65.9026 1.008L61.0066 21.15H58.9906L63.8686 1.008H65.9026ZM67.9487 6.75V4.878H71.6927V18H69.6227V6.75H67.9487ZM74.5116 11.268C74.5116 9.192 74.8596 7.572 75.5556 6.408C76.2636 5.232 77.4756 4.644 79.1916 4.644C80.9076 4.644 82.1136 5.232 82.8096 6.408C83.5176 7.572 83.8716 9.192 83.8716 11.268C83.8716 13.368 83.5176 15.012 82.8096 16.2C82.1136 17.376 80.9076 17.964 79.1916 17.964C77.4756 17.964 76.2636 17.376 75.5556 16.2C74.8596 15.012 74.5116 13.368 74.5116 11.268ZM81.8556 11.268C81.8556 10.296 81.7896 9.474 81.6576 8.802C81.5376 8.13 81.2856 7.584 80.9016 7.164C80.5176 6.732 79.9476 6.516 79.1916 6.516C78.4356 6.516 77.8656 6.732 77.4816 7.164C77.0976 7.584 76.8396 8.13 76.7076 8.802C76.5876 9.474 76.5276 10.296 76.5276 11.268C76.5276 12.276 76.5876 13.122 76.7076 13.806C76.8276 14.49 77.0796 15.042 77.4636 15.462C77.8596 15.882 78.4356 16.092 79.1916 16.092C79.9476 16.092 80.5176 15.882 80.9016 15.462C81.2976 15.042 81.5556 14.49 81.6756 13.806C81.7956 13.122 81.8556 12.276 81.8556 11.268Z" fill="white"/>
<path d="M12 2L15.09 8.26L22 9.27L17 14.14L18.18 21.02L12 17.77L5.82 21.02L7 14.14L2 9.27L8.91 8.26L12 2Z" fill="#FFC01E"/>
</svg>
