<svg width="294" height="50" viewBox="0 0 294 50" fill="none" xmlns="http://www.w3.org/2000/svg">
<path d="M7.032 2.496V36H0.312V2.496H7.032ZM11.9434 22.704C11.9434 19.952 12.5034 17.552 13.6234 15.504C14.7434 13.424 16.2954 11.824 18.2794 10.704C20.2634 9.552 22.5354 8.976 25.0954 8.976C28.3914 8.976 31.1114 9.808 33.2554 11.472C35.4314 13.104 36.8874 15.408 37.6234 18.384H30.3754C29.9914 17.232 29.3354 16.336 28.4074 15.696C27.5114 15.024 26.3914 14.688 25.0474 14.688C23.1274 14.688 21.6074 15.392 20.4874 16.8C19.3674 18.176 18.8074 20.144 18.8074 22.704C18.8074 25.232 19.3674 27.2 20.4874 28.608C21.6074 29.984 23.1274 30.672 25.0474 30.672C27.7674 30.672 29.5434 29.456 30.3754 27.024H37.6234C36.8874 29.904 35.4314 32.192 33.2554 33.888C31.0794 35.584 28.3594 36.432 25.0954 36.432C22.5354 36.432 20.2634 35.872 18.2794 34.752C16.2954 33.6 14.7434 32 13.6234 29.952C12.5034 27.872 11.9434 25.456 11.9434 22.704ZM54.3544 36.432C51.7944 36.432 49.4904 35.872 47.4424 34.752C45.3944 33.6 43.7784 31.984 42.5944 29.904C41.4424 27.824 40.8664 25.424 40.8664 22.704C40.8664 19.984 41.4584 17.584 42.6424 15.504C43.8584 13.424 45.5064 11.824 47.5864 10.704C49.6664 9.552 51.9864 8.976 54.5464 8.976C57.1064 8.976 59.4264 9.552 61.5064 10.704C63.5864 11.824 65.2184 13.424 66.4024 15.504C67.6184 17.584 68.2264 19.984 68.2264 22.704C68.2264 25.424 67.6024 27.824 66.3544 29.904C65.1384 31.984 63.4744 33.6 61.3624 34.752C59.2824 35.872 56.9464 36.432 54.3544 36.432ZM54.3544 30.576C55.5704 30.576 56.7064 30.288 57.7624 29.712C58.8504 29.104 59.7144 28.208 60.3544 27.024C60.9944 25.84 61.3144 24.4 61.3144 22.704C61.3144 20.176 60.6424 18.24 59.2984 16.896C57.9864 15.52 56.3704 14.832 54.4504 14.832C52.5304 14.832 50.9144 15.52 49.6024 16.896C48.3224 18.24 47.6824 20.176 47.6824 22.704C47.6824 25.232 48.3064 27.184 49.5544 28.56C50.8344 29.904 52.4344 30.576 54.3544 30.576ZM87.8918 9.024C91.0598 9.024 93.6198 10.032 95.5718 12.048C97.5238 14.032 98.4998 16.816 98.4998 20.4V36H91.7798V21.312C91.7798 19.2 91.2518 17.584 90.1958 16.464C89.1398 15.312 87.6998 14.736 85.8758 14.736C84.0198 14.736 82.5478 15.312 81.4598 16.464C80.4038 17.584 79.8758 19.2 79.8758 21.312V36H73.1558V9.408H79.8758V12.72C80.7718 11.568 81.9078 10.672 83.2838 10.032C84.6918 9.36 86.2278 9.024 87.8918 9.024ZM115.066 36.432C112.89 36.432 110.938 36.048 109.21 35.28C107.482 34.48 106.106 33.408 105.082 32.064C104.09 30.72 103.546 29.232 103.45 27.6H110.218C110.346 28.624 110.842 29.472 111.706 30.144C112.602 30.816 113.706 31.152 115.018 31.152C116.298 31.152 117.29 30.896 117.994 30.384C118.73 29.872 119.098 29.216 119.098 28.416C119.098 27.552 118.65 26.912 117.754 26.496C116.89 26.048 115.498 25.568 113.578 25.056C111.594 24.576 109.962 24.08 108.682 23.568C107.434 23.056 106.346 22.272 105.418 21.216C104.522 20.16 104.074 18.736 104.074 16.944C104.074 15.472 104.49 14.128 105.322 12.912C106.186 11.696 107.402 10.736 108.97 10.032C110.57 9.328 112.442 8.976 114.586 8.976C117.754 8.976 120.282 9.776 122.17 11.376C124.058 12.944 125.098 15.072 125.29 17.76H118.858C118.762 16.704 118.314 15.872 117.514 15.264C116.746 14.624 115.706 14.304 114.394 14.304C113.178 14.304 112.234 14.528 111.562 14.976C110.922 15.424 110.602 16.048 110.602 16.848C110.602 17.744 111.05 18.432 111.946 18.912C112.842 19.36 114.234 19.824 116.122 20.304C118.042 20.784 119.626 21.28 120.874 21.792C122.122 22.304 123.194 23.104 124.09 24.192C125.018 25.248 125.498 26.656 125.53 28.416C125.53 29.952 125.098 31.328 124.234 32.544C123.402 33.76 122.186 34.72 120.586 35.424C119.018 36.096 117.178 36.432 115.066 36.432ZM168.26 36L164.612 32.4C161.508 35.184 157.716 36.576 153.236 36.576C150.772 36.576 148.596 36.16 146.708 35.328C144.852 34.464 143.412 33.264 142.388 31.728C141.364 30.16 140.852 28.352 140.852 26.304C140.852 24.096 141.476 22.112 142.724 20.352C143.972 18.592 145.812 17.168 148.244 16.08C147.38 15.024 146.756 14.016 146.372 13.056C145.988 12.064 145.796 11.008 145.796 9.888C145.796 8.352 146.196 6.976 146.996 5.76C147.796 4.512 148.932 3.536 150.404 2.832C151.908 2.128 153.652 1.776 155.636 1.776C157.652 1.776 159.38 2.16 160.82 2.928C162.26 3.696 163.332 4.72 164.036 6C164.74 7.28 165.044 8.704 164.948 10.272H158.42C158.452 9.216 158.196 8.416 157.652 7.872C157.108 7.296 156.372 7.008 155.444 7.008C154.548 7.008 153.796 7.28 153.188 7.824C152.612 8.336 152.324 9.008 152.324 9.84C152.324 10.64 152.564 11.44 153.044 12.24C153.524 13.008 154.308 13.968 155.396 15.12L163.844 23.472C163.908 23.408 163.956 23.344 163.988 23.28C164.02 23.216 164.052 23.152 164.084 23.088L166.82 18.528H173.828L170.468 24.432C169.828 25.68 169.14 26.864 168.404 27.984L176.516 36H168.26ZM153.428 31.008C156.052 31.008 158.372 30.08 160.388 28.224L152.132 20.064C149.028 21.44 147.476 23.392 147.476 25.92C147.476 27.36 148.02 28.576 149.108 29.568C150.196 30.528 151.636 31.008 153.428 31.008ZM198.001 0.48V36H191.281V0.48H198.001ZM216.448 36.432C213.888 36.432 211.584 35.872 209.536 34.752C207.488 33.6 205.872 31.984 204.688 29.904C203.536 27.824 202.96 25.424 202.96 22.704C202.96 19.984 203.552 17.584 204.736 15.504C205.952 13.424 207.6 11.824 209.68 10.704C211.76 9.552 214.08 8.976 216.64 8.976C219.2 8.976 221.52 9.552 223.6 10.704C225.68 11.824 227.312 13.424 228.496 15.504C229.712 17.584 230.32 19.984 230.32 22.704C230.32 25.424 229.696 27.824 228.448 29.904C227.232 31.984 225.568 33.6 223.456 34.752C221.376 35.872 219.04 36.432 216.448 36.432ZM216.448 30.576C217.664 30.576 218.8 30.288 219.856 29.712C220.944 29.104 221.808 28.208 222.448 27.024C223.088 25.84 223.408 24.4 223.408 22.704C223.408 20.176 222.736 18.24 221.392 16.896C220.08 15.52 218.464 14.832 216.544 14.832C214.624 14.832 213.008 15.52 211.696 16.896C210.416 18.24 209.776 20.176 209.776 22.704C209.776 25.232 210.4 27.184 211.648 28.56C212.928 29.904 214.528 30.576 216.448 30.576ZM245.666 8.976C247.65 8.976 249.394 9.376 250.898 10.176C252.402 10.944 253.586 11.952 254.45 13.2V9.408H261.218V36.192C261.218 38.656 260.722 40.848 259.73 42.768C258.738 44.72 257.25 46.256 255.266 47.376C253.282 48.528 250.882 49.104 248.066 49.104C244.29 49.104 241.186 48.224 238.754 46.464C236.354 44.704 234.994 42.304 234.674 39.264H241.346C241.698 40.48 242.45 41.44 243.602 42.144C244.786 42.88 246.21 43.248 247.874 43.248C249.826 43.248 251.41 42.656 252.626 41.472C253.842 40.32 254.45 38.56 254.45 36.192V32.064C253.586 33.312 252.386 34.352 250.85 35.184C249.346 36.016 247.618 36.432 245.666 36.432C243.426 36.432 241.378 35.856 239.522 34.704C237.666 33.552 236.194 31.936 235.105 29.856C234.049 27.744 233.521 25.328 233.521 22.608C233.521 19.92 234.049 17.536 235.105 15.456C236.194 13.376 237.65 11.776 239.474 10.656C241.33 9.536 243.394 8.976 245.666 8.976ZM254.45 22.704C254.45 21.072 254.13 19.68 253.49 18.528C252.85 17.344 251.986 16.448 250.898 15.84C249.81 15.2 248.642 14.88 247.394 14.88C246.146 14.88 244.994 15.184 243.938 15.792C242.882 16.4 242.018 17.296 241.346 18.48C240.706 19.632 240.386 21.008 240.386 22.608C240.386 24.208 240.706 25.616 241.346 26.832C242.018 28.016 242.882 28.928 243.938 29.568C245.026 30.208 246.178 30.528 247.394 30.528C248.642 30.528 249.81 30.224 250.898 29.616C251.986 28.976 252.85 28.08 253.49 26.928C254.13 25.744 254.45 24.336 254.45 22.704ZM279.589 36.432C277.029 36.432 274.725 35.872 272.677 34.752C270.629 33.6 269.013 31.984 267.829 29.904C266.677 27.824 266.101 25.424 266.101 22.704C266.101 19.984 266.693 17.584 267.877 15.504C269.093 13.424 270.741 11.824 272.821 10.704C274.901 9.552 277.221 8.976 279.781 8.976C282.341 8.976 284.661 9.552 286.741 10.704C288.821 11.824 290.453 13.424 291.637 15.504C292.853 17.584 293.461 19.984 293.461 22.704C293.461 25.424 292.837 27.824 291.589 29.904C290.373 31.984 288.709 33.6 286.597 34.752C284.517 35.872 282.181 36.432 279.589 36.432ZM279.589 30.576C280.805 30.576 281.941 30.288 282.997 29.712C284.085 29.104 284.949 28.208 285.589 27.024C286.229 25.84 286.549 24.4 286.549 22.704C286.549 20.176 285.877 18.24 284.533 16.896C283.221 15.52 281.605 14.832 279.685 14.832C277.765 14.832 276.149 15.52 274.837 16.896C273.557 18.24 272.917 20.176 272.917 22.704C272.917 25.232 273.541 27.184 274.789 28.56C276.069 29.904 277.669 30.576 279.589 30.576Z" fill="white"/>
</svg>
