<svg width="454" height="1204" viewBox="0 0 454 1204" fill="none" xmlns="http://www.w3.org/2000/svg">
<g filter="url(#filter0_d_204_246)">
<rect x="88" y="90" width="274" height="1024" fill="#21201E"/>
</g>
<path opacity="0.8" d="M173.824 226.848V238H172.368V232.944H166.688V238H165.232V226.848H166.688V231.744H172.368V226.848H173.824ZM180.134 238.144C179.313 238.144 178.566 237.957 177.894 237.584C177.233 237.211 176.71 236.683 176.326 236C175.953 235.307 175.766 234.507 175.766 233.6C175.766 232.704 175.958 231.915 176.342 231.232C176.737 230.539 177.27 230.011 177.942 229.648C178.614 229.275 179.366 229.088 180.198 229.088C181.03 229.088 181.782 229.275 182.454 229.648C183.126 230.011 183.654 230.533 184.038 231.216C184.433 231.899 184.63 232.693 184.63 233.6C184.63 234.507 184.427 235.307 184.022 236C183.627 236.683 183.089 237.211 182.406 237.584C181.723 237.957 180.966 238.144 180.134 238.144ZM180.134 236.864C180.657 236.864 181.147 236.741 181.606 236.496C182.065 236.251 182.433 235.883 182.71 235.392C182.998 234.901 183.142 234.304 183.142 233.6C183.142 232.896 183.003 232.299 182.726 231.808C182.449 231.317 182.086 230.955 181.638 230.72C181.19 230.475 180.705 230.352 180.182 230.352C179.649 230.352 179.158 230.475 178.71 230.72C178.273 230.955 177.921 231.317 177.654 231.808C177.387 232.299 177.254 232.896 177.254 233.6C177.254 234.315 177.382 234.917 177.638 235.408C177.905 235.899 178.257 236.267 178.694 236.512C179.131 236.747 179.611 236.864 180.134 236.864ZM197.089 229.072C197.771 229.072 198.379 229.216 198.913 229.504C199.446 229.781 199.867 230.203 200.177 230.768C200.486 231.333 200.641 232.021 200.641 232.832V238H199.201V233.04C199.201 232.165 198.982 231.499 198.545 231.04C198.118 230.571 197.537 230.336 196.801 230.336C196.043 230.336 195.441 230.581 194.993 231.072C194.545 231.552 194.321 232.251 194.321 233.168V238H192.881V233.04C192.881 232.165 192.662 231.499 192.225 231.04C191.798 230.571 191.217 230.336 190.481 230.336C189.723 230.336 189.121 230.581 188.673 231.072C188.225 231.552 188.001 232.251 188.001 233.168V238H186.545V229.232H188.001V230.496C188.289 230.037 188.673 229.685 189.153 229.44C189.643 229.195 190.182 229.072 190.769 229.072C191.505 229.072 192.155 229.237 192.721 229.568C193.286 229.899 193.707 230.384 193.985 231.024C194.23 230.405 194.635 229.925 195.201 229.584C195.766 229.243 196.395 229.072 197.089 229.072ZM211.029 233.28C211.029 233.557 211.013 233.851 210.981 234.16H203.973C204.026 235.024 204.32 235.701 204.853 236.192C205.397 236.672 206.053 236.912 206.821 236.912C207.45 236.912 207.973 236.768 208.389 236.48C208.816 236.181 209.114 235.787 209.285 235.296H210.853C210.618 236.139 210.149 236.827 209.445 237.36C208.741 237.883 207.866 238.144 206.821 238.144C205.989 238.144 205.242 237.957 204.581 237.584C203.93 237.211 203.418 236.683 203.045 236C202.672 235.307 202.485 234.507 202.485 233.6C202.485 232.693 202.666 231.899 203.029 231.216C203.392 230.533 203.898 230.011 204.549 229.648C205.21 229.275 205.968 229.088 206.821 229.088C207.653 229.088 208.389 229.269 209.029 229.632C209.669 229.995 210.16 230.496 210.501 231.136C210.853 231.765 211.029 232.48 211.029 233.28ZM209.525 232.976C209.525 232.421 209.402 231.947 209.157 231.552C208.912 231.147 208.576 230.843 208.149 230.64C207.733 230.427 207.269 230.32 206.757 230.32C206.021 230.32 205.392 230.555 204.869 231.024C204.357 231.493 204.064 232.144 203.989 232.976H209.525Z" fill="white"/>
<path opacity="0.8" d="M171.536 285.848V287.032H166.688V290.792H170.624V291.976H166.688V297H165.232V285.848H171.536ZM172.751 292.584C172.751 291.688 172.932 290.904 173.295 290.232C173.657 289.549 174.153 289.021 174.783 288.648C175.423 288.275 176.132 288.088 176.911 288.088C177.679 288.088 178.345 288.253 178.911 288.584C179.476 288.915 179.897 289.331 180.175 289.832V288.232H181.647V297H180.175V295.368C179.887 295.88 179.455 296.307 178.879 296.648C178.313 296.979 177.652 297.144 176.895 297.144C176.116 297.144 175.412 296.952 174.783 296.568C174.153 296.184 173.657 295.645 173.295 294.952C172.932 294.259 172.751 293.469 172.751 292.584ZM180.175 292.6C180.175 291.939 180.041 291.363 179.775 290.872C179.508 290.381 179.145 290.008 178.687 289.752C178.239 289.485 177.743 289.352 177.199 289.352C176.655 289.352 176.159 289.48 175.711 289.736C175.263 289.992 174.905 290.365 174.639 290.856C174.372 291.347 174.239 291.923 174.239 292.584C174.239 293.256 174.372 293.843 174.639 294.344C174.905 294.835 175.263 295.213 175.711 295.48C176.159 295.736 176.655 295.864 177.199 295.864C177.743 295.864 178.239 295.736 178.687 295.48C179.145 295.213 179.508 294.835 179.775 294.344C180.041 293.843 180.175 293.261 180.175 292.6ZM187.371 295.656L190.091 288.232H191.643L188.203 297H186.507L183.067 288.232H184.635L187.371 295.656ZM196.9 297.144C196.078 297.144 195.332 296.957 194.66 296.584C193.998 296.211 193.476 295.683 193.092 295C192.718 294.307 192.532 293.507 192.532 292.6C192.532 291.704 192.724 290.915 193.108 290.232C193.502 289.539 194.036 289.011 194.708 288.648C195.38 288.275 196.132 288.088 196.964 288.088C197.796 288.088 198.548 288.275 199.22 288.648C199.892 289.011 200.42 289.533 200.804 290.216C201.198 290.899 201.396 291.693 201.396 292.6C201.396 293.507 201.193 294.307 200.788 295C200.393 295.683 199.854 296.211 199.172 296.584C198.489 296.957 197.732 297.144 196.9 297.144ZM196.9 295.864C197.422 295.864 197.913 295.741 198.372 295.496C198.83 295.251 199.198 294.883 199.476 294.392C199.764 293.901 199.908 293.304 199.908 292.6C199.908 291.896 199.769 291.299 199.492 290.808C199.214 290.317 198.852 289.955 198.404 289.72C197.956 289.475 197.47 289.352 196.948 289.352C196.414 289.352 195.924 289.475 195.476 289.72C195.038 289.955 194.686 290.317 194.42 290.808C194.153 291.299 194.02 291.896 194.02 292.6C194.02 293.315 194.148 293.917 194.404 294.408C194.67 294.899 195.022 295.267 195.46 295.512C195.897 295.747 196.377 295.864 196.9 295.864ZM211.086 288.232V297H209.63V295.704C209.353 296.152 208.963 296.504 208.462 296.76C207.971 297.005 207.427 297.128 206.83 297.128C206.147 297.128 205.534 296.989 204.99 296.712C204.446 296.424 204.014 295.997 203.694 295.432C203.385 294.867 203.23 294.179 203.23 293.368V288.232H204.67V293.176C204.67 294.04 204.889 294.707 205.326 295.176C205.763 295.635 206.361 295.864 207.118 295.864C207.897 295.864 208.51 295.624 208.958 295.144C209.406 294.664 209.63 293.965 209.63 293.048V288.232H211.086ZM215.001 289.656C215.257 289.155 215.619 288.765 216.089 288.488C216.569 288.211 217.15 288.072 217.833 288.072V289.576H217.449C215.817 289.576 215.001 290.461 215.001 292.232V297H213.545V288.232H215.001V289.656ZM220.265 286.808C219.988 286.808 219.753 286.712 219.561 286.52C219.369 286.328 219.273 286.093 219.273 285.816C219.273 285.539 219.369 285.304 219.561 285.112C219.753 284.92 219.988 284.824 220.265 284.824C220.532 284.824 220.756 284.92 220.937 285.112C221.129 285.304 221.225 285.539 221.225 285.816C221.225 286.093 221.129 286.328 220.937 286.52C220.756 286.712 220.532 286.808 220.265 286.808ZM220.969 288.232V297H219.513V288.232H220.969ZM225.227 289.432V294.6C225.227 295.027 225.317 295.331 225.499 295.512C225.68 295.683 225.995 295.768 226.443 295.768H227.515V297H226.203C225.392 297 224.784 296.813 224.379 296.44C223.973 296.067 223.771 295.453 223.771 294.6V289.432H222.635V288.232H223.771V286.024H225.227V288.232H227.515V289.432H225.227ZM237.279 292.28C237.279 292.557 237.263 292.851 237.231 293.16H230.223C230.276 294.024 230.57 294.701 231.103 295.192C231.647 295.672 232.303 295.912 233.071 295.912C233.7 295.912 234.223 295.768 234.639 295.48C235.066 295.181 235.364 294.787 235.535 294.296H237.103C236.868 295.139 236.399 295.827 235.695 296.36C234.991 296.883 234.116 297.144 233.071 297.144C232.239 297.144 231.492 296.957 230.831 296.584C230.18 296.211 229.668 295.683 229.295 295C228.922 294.307 228.735 293.507 228.735 292.6C228.735 291.693 228.916 290.899 229.279 290.216C229.642 289.533 230.148 289.011 230.799 288.648C231.46 288.275 232.218 288.088 233.071 288.088C233.903 288.088 234.639 288.269 235.279 288.632C235.919 288.995 236.41 289.496 236.751 290.136C237.103 290.765 237.279 291.48 237.279 292.28ZM235.775 291.976C235.775 291.421 235.652 290.947 235.407 290.552C235.162 290.147 234.826 289.843 234.399 289.64C233.983 289.427 233.519 289.32 233.007 289.32C232.271 289.32 231.642 289.555 231.119 290.024C230.607 290.493 230.314 291.144 230.239 291.976H235.775ZM242.305 297.144C241.633 297.144 241.03 297.032 240.497 296.808C239.963 296.573 239.542 296.253 239.233 295.848C238.923 295.432 238.753 294.957 238.721 294.424H240.225C240.267 294.861 240.47 295.219 240.833 295.496C241.206 295.773 241.691 295.912 242.289 295.912C242.843 295.912 243.281 295.789 243.601 295.544C243.921 295.299 244.081 294.989 244.081 294.616C244.081 294.232 243.91 293.949 243.569 293.768C243.227 293.576 242.699 293.389 241.985 293.208C241.334 293.037 240.801 292.867 240.385 292.696C239.979 292.515 239.627 292.253 239.329 291.912C239.041 291.56 238.897 291.101 238.897 290.536C238.897 290.088 239.03 289.677 239.297 289.304C239.563 288.931 239.942 288.637 240.433 288.424C240.923 288.2 241.483 288.088 242.113 288.088C243.083 288.088 243.867 288.333 244.465 288.824C245.062 289.315 245.382 289.987 245.425 290.84H243.969C243.937 290.381 243.75 290.013 243.409 289.736C243.078 289.459 242.63 289.32 242.065 289.32C241.542 289.32 241.126 289.432 240.817 289.656C240.507 289.88 240.353 290.173 240.353 290.536C240.353 290.824 240.443 291.064 240.625 291.256C240.817 291.437 241.051 291.587 241.329 291.704C241.617 291.811 242.011 291.933 242.513 292.072C243.142 292.243 243.654 292.413 244.049 292.584C244.443 292.744 244.779 292.989 245.057 293.32C245.345 293.651 245.494 294.083 245.505 294.616C245.505 295.096 245.371 295.528 245.105 295.912C244.838 296.296 244.459 296.6 243.969 296.824C243.489 297.037 242.934 297.144 242.305 297.144Z" fill="white"/>
<path d="M173.072 344.768V346.96H170.096V356H167.36V346.96H164.384V344.768H173.072ZM177.181 348.56C177.501 348.069 177.901 347.685 178.381 347.408C178.861 347.12 179.394 346.976 179.981 346.976V349.872H179.229C178.546 349.872 178.034 350.021 177.693 350.32C177.352 350.608 177.181 351.12 177.181 351.856V356H174.445V347.072H177.181V348.56ZM189.705 351.392C189.705 351.648 189.689 351.915 189.657 352.192H183.465C183.508 352.747 183.684 353.173 183.993 353.472C184.313 353.76 184.702 353.904 185.161 353.904C185.844 353.904 186.318 353.616 186.585 353.04H189.497C189.348 353.627 189.076 354.155 188.681 354.624C188.297 355.093 187.812 355.461 187.225 355.728C186.638 355.995 185.982 356.128 185.257 356.128C184.382 356.128 183.604 355.941 182.921 355.568C182.238 355.195 181.705 354.661 181.321 353.968C180.937 353.275 180.745 352.464 180.745 351.536C180.745 350.608 180.932 349.797 181.305 349.104C181.689 348.411 182.222 347.877 182.905 347.504C183.588 347.131 184.372 346.944 185.257 346.944C186.121 346.944 186.889 347.125 187.561 347.488C188.233 347.851 188.756 348.368 189.129 349.04C189.513 349.712 189.705 350.496 189.705 351.392ZM186.905 350.672C186.905 350.203 186.745 349.829 186.425 349.552C186.105 349.275 185.705 349.136 185.225 349.136C184.766 349.136 184.377 349.269 184.057 349.536C183.748 349.803 183.556 350.181 183.481 350.672H186.905ZM196.588 346.976C197.634 346.976 198.466 347.317 199.084 348C199.714 348.672 200.028 349.6 200.028 350.784V356H197.308V351.152C197.308 350.555 197.154 350.091 196.844 349.76C196.535 349.429 196.119 349.264 195.596 349.264C195.074 349.264 194.658 349.429 194.348 349.76C194.039 350.091 193.884 350.555 193.884 351.152V356H191.148V347.072H193.884V348.256C194.162 347.861 194.535 347.552 195.004 347.328C195.474 347.093 196.002 346.976 196.588 346.976ZM201.386 351.52C201.386 350.603 201.556 349.797 201.898 349.104C202.25 348.411 202.724 347.877 203.322 347.504C203.919 347.131 204.586 346.944 205.322 346.944C205.908 346.944 206.442 347.067 206.922 347.312C207.412 347.557 207.796 347.888 208.074 348.304V344.16H210.81V356H208.074V354.72C207.818 355.147 207.45 355.488 206.97 355.744C206.5 356 205.951 356.128 205.322 356.128C204.586 356.128 203.919 355.941 203.322 355.568C202.724 355.184 202.25 354.645 201.898 353.952C201.556 353.248 201.386 352.437 201.386 351.52ZM208.074 351.536C208.074 350.853 207.882 350.315 207.498 349.92C207.124 349.525 206.666 349.328 206.122 349.328C205.578 349.328 205.114 349.525 204.73 349.92C204.356 350.304 204.17 350.837 204.17 351.52C204.17 352.203 204.356 352.747 204.73 353.152C205.114 353.547 205.578 353.744 206.122 353.744C206.666 353.744 207.124 353.547 207.498 353.152C207.882 352.757 208.074 352.219 208.074 351.536ZM214.165 346.144C213.685 346.144 213.29 346.005 212.981 345.728C212.682 345.44 212.533 345.088 212.533 344.672C212.533 344.245 212.682 343.893 212.981 343.616C213.29 343.328 213.685 343.184 214.165 343.184C214.634 343.184 215.018 343.328 215.317 343.616C215.626 343.893 215.781 344.245 215.781 344.672C215.781 345.088 215.626 345.44 215.317 345.728C215.018 346.005 214.634 346.144 214.165 346.144ZM215.525 347.072V356H212.789V347.072H215.525ZM222.948 346.976C223.993 346.976 224.825 347.317 225.444 348C226.073 348.672 226.388 349.6 226.388 350.784V356H223.668V351.152C223.668 350.555 223.513 350.091 223.204 349.76C222.894 349.429 222.478 349.264 221.956 349.264C221.433 349.264 221.017 349.429 220.708 349.76C220.398 350.091 220.244 350.555 220.244 351.152V356H217.508V347.072H220.244V348.256C220.521 347.861 220.894 347.552 221.364 347.328C221.833 347.093 222.361 346.976 222.948 346.976ZM231.681 346.944C232.31 346.944 232.86 347.072 233.329 347.328C233.809 347.584 234.177 347.92 234.433 348.336V347.072H237.169V355.984C237.169 356.805 237.004 357.547 236.673 358.208C236.353 358.88 235.857 359.413 235.185 359.808C234.524 360.203 233.697 360.4 232.705 360.4C231.382 360.4 230.31 360.085 229.489 359.456C228.668 358.837 228.198 357.995 228.081 356.928H230.785C230.87 357.269 231.073 357.536 231.393 357.728C231.713 357.931 232.108 358.032 232.577 358.032C233.142 358.032 233.59 357.867 233.921 357.536C234.262 357.216 234.433 356.699 234.433 355.984V354.72C234.166 355.136 233.798 355.477 233.329 355.744C232.86 356 232.31 356.128 231.681 356.128C230.945 356.128 230.278 355.941 229.681 355.568C229.084 355.184 228.609 354.645 228.257 353.952C227.916 353.248 227.745 352.437 227.745 351.52C227.745 350.603 227.916 349.797 228.257 349.104C228.609 348.411 229.084 347.877 229.681 347.504C230.278 347.131 230.945 346.944 231.681 346.944ZM234.433 351.536C234.433 350.853 234.241 350.315 233.857 349.92C233.484 349.525 233.025 349.328 232.481 349.328C231.937 349.328 231.473 349.525 231.089 349.92C230.716 350.304 230.529 350.837 230.529 351.52C230.529 352.203 230.716 352.747 231.089 353.152C231.473 353.547 231.937 353.744 232.481 353.744C233.025 353.744 233.484 353.547 233.857 353.152C234.241 352.757 234.433 352.219 234.433 351.536Z" fill="white"/>
<path opacity="0.8" d="M164.688 408.416C164.688 407.328 164.933 406.352 165.424 405.488C165.915 404.613 166.581 403.931 167.424 403.44C168.277 402.949 169.221 402.704 170.256 402.704C171.472 402.704 172.533 402.997 173.44 403.584C174.347 404.171 175.008 405.003 175.424 406.08H173.68C173.371 405.408 172.923 404.891 172.336 404.528C171.76 404.165 171.067 403.984 170.256 403.984C169.477 403.984 168.779 404.165 168.16 404.528C167.541 404.891 167.056 405.408 166.704 406.08C166.352 406.741 166.176 407.52 166.176 408.416C166.176 409.301 166.352 410.08 166.704 410.752C167.056 411.413 167.541 411.925 168.16 412.288C168.779 412.651 169.477 412.832 170.256 412.832C171.067 412.832 171.76 412.656 172.336 412.304C172.923 411.941 173.371 411.424 173.68 410.752H175.424C175.008 411.819 174.347 412.645 173.44 413.232C172.533 413.808 171.472 414.096 170.256 414.096C169.221 414.096 168.277 413.856 167.424 413.376C166.581 412.885 165.915 412.208 165.424 411.344C164.933 410.48 164.688 409.504 164.688 408.416ZM181.415 414.144C180.594 414.144 179.847 413.957 179.175 413.584C178.514 413.211 177.991 412.683 177.607 412C177.234 411.307 177.047 410.507 177.047 409.6C177.047 408.704 177.239 407.915 177.623 407.232C178.018 406.539 178.551 406.011 179.223 405.648C179.895 405.275 180.647 405.088 181.479 405.088C182.311 405.088 183.063 405.275 183.735 405.648C184.407 406.011 184.935 406.533 185.319 407.216C185.714 407.899 185.911 408.693 185.911 409.6C185.911 410.507 185.709 411.307 185.303 412C184.909 412.683 184.37 413.211 183.687 413.584C183.005 413.957 182.247 414.144 181.415 414.144ZM181.415 412.864C181.938 412.864 182.429 412.741 182.887 412.496C183.346 412.251 183.714 411.883 183.991 411.392C184.279 410.901 184.423 410.304 184.423 409.6C184.423 408.896 184.285 408.299 184.007 407.808C183.73 407.317 183.367 406.955 182.919 406.72C182.471 406.475 181.986 406.352 181.463 406.352C180.93 406.352 180.439 406.475 179.991 406.72C179.554 406.955 179.202 407.317 178.935 407.808C178.669 408.299 178.535 408.896 178.535 409.6C178.535 410.315 178.663 410.917 178.919 411.408C179.186 411.899 179.538 412.267 179.975 412.512C180.413 412.747 180.893 412.864 181.415 412.864ZM198.37 405.072C199.052 405.072 199.66 405.216 200.194 405.504C200.727 405.781 201.148 406.203 201.458 406.768C201.767 407.333 201.922 408.021 201.922 408.832V414H200.482V409.04C200.482 408.165 200.263 407.499 199.826 407.04C199.399 406.571 198.818 406.336 198.082 406.336C197.324 406.336 196.722 406.581 196.274 407.072C195.826 407.552 195.602 408.251 195.602 409.168V414H194.162V409.04C194.162 408.165 193.943 407.499 193.506 407.04C193.079 406.571 192.498 406.336 191.762 406.336C191.004 406.336 190.402 406.581 189.954 407.072C189.506 407.552 189.282 408.251 189.282 409.168V414H187.826V405.232H189.282V406.496C189.57 406.037 189.954 405.685 190.434 405.44C190.924 405.195 191.463 405.072 192.05 405.072C192.786 405.072 193.436 405.237 194.002 405.568C194.567 405.899 194.988 406.384 195.266 407.024C195.511 406.405 195.916 405.925 196.482 405.584C197.047 405.243 197.676 405.072 198.37 405.072ZM205.062 403.808C204.785 403.808 204.55 403.712 204.358 403.52C204.166 403.328 204.07 403.093 204.07 402.816C204.07 402.539 204.166 402.304 204.358 402.112C204.55 401.92 204.785 401.824 205.062 401.824C205.329 401.824 205.553 401.92 205.734 402.112C205.926 402.304 206.022 402.539 206.022 402.816C206.022 403.093 205.926 403.328 205.734 403.52C205.553 403.712 205.329 403.808 205.062 403.808ZM205.766 405.232V414H204.31V405.232H205.766ZM212.52 405.072C213.586 405.072 214.45 405.397 215.112 406.048C215.773 406.688 216.104 407.616 216.104 408.832V414H214.664V409.04C214.664 408.165 214.445 407.499 214.008 407.04C213.57 406.571 212.973 406.336 212.216 406.336C211.448 406.336 210.834 406.576 210.376 407.056C209.928 407.536 209.704 408.235 209.704 409.152V414H208.248V405.232H209.704V406.48C209.992 406.032 210.381 405.685 210.872 405.44C211.373 405.195 211.922 405.072 212.52 405.072ZM222.098 405.088C222.855 405.088 223.517 405.253 224.082 405.584C224.658 405.915 225.085 406.331 225.362 406.832V405.232H226.834V414.192C226.834 414.992 226.663 415.701 226.322 416.32C225.981 416.949 225.49 417.44 224.85 417.792C224.221 418.144 223.485 418.32 222.642 418.32C221.49 418.32 220.53 418.048 219.762 417.504C218.994 416.96 218.541 416.219 218.402 415.28H219.842C220.002 415.813 220.333 416.24 220.834 416.56C221.335 416.891 221.938 417.056 222.642 417.056C223.442 417.056 224.093 416.805 224.594 416.304C225.106 415.803 225.362 415.099 225.362 414.192V412.352C225.074 412.864 224.647 413.291 224.082 413.632C223.517 413.973 222.855 414.144 222.098 414.144C221.319 414.144 220.61 413.952 219.97 413.568C219.341 413.184 218.845 412.645 218.482 411.952C218.119 411.259 217.938 410.469 217.938 409.584C217.938 408.688 218.119 407.904 218.482 407.232C218.845 406.549 219.341 406.021 219.97 405.648C220.61 405.275 221.319 405.088 222.098 405.088ZM225.362 409.6C225.362 408.939 225.229 408.363 224.962 407.872C224.695 407.381 224.333 407.008 223.874 406.752C223.426 406.485 222.93 406.352 222.386 406.352C221.842 406.352 221.346 406.48 220.898 406.736C220.45 406.992 220.093 407.365 219.826 407.856C219.559 408.347 219.426 408.923 219.426 409.584C219.426 410.256 219.559 410.843 219.826 411.344C220.093 411.835 220.45 412.213 220.898 412.48C221.346 412.736 221.842 412.864 222.386 412.864C222.93 412.864 223.426 412.736 223.874 412.48C224.333 412.213 224.695 411.835 224.962 411.344C225.229 410.843 225.362 410.261 225.362 409.6ZM236.664 414.144C235.992 414.144 235.389 414.032 234.856 413.808C234.323 413.573 233.901 413.253 233.592 412.848C233.283 412.432 233.112 411.957 233.08 411.424H234.584C234.627 411.861 234.829 412.219 235.192 412.496C235.565 412.773 236.051 412.912 236.648 412.912C237.203 412.912 237.64 412.789 237.96 412.544C238.28 412.299 238.44 411.989 238.44 411.616C238.44 411.232 238.269 410.949 237.928 410.768C237.587 410.576 237.059 410.389 236.344 410.208C235.693 410.037 235.16 409.867 234.744 409.696C234.339 409.515 233.987 409.253 233.688 408.912C233.4 408.56 233.256 408.101 233.256 407.536C233.256 407.088 233.389 406.677 233.656 406.304C233.923 405.931 234.301 405.637 234.792 405.424C235.283 405.2 235.843 405.088 236.472 405.088C237.443 405.088 238.227 405.333 238.824 405.824C239.421 406.315 239.741 406.987 239.784 407.84H238.328C238.296 407.381 238.109 407.013 237.768 406.736C237.437 406.459 236.989 406.32 236.424 406.32C235.901 406.32 235.485 406.432 235.176 406.656C234.867 406.88 234.712 407.173 234.712 407.536C234.712 407.824 234.803 408.064 234.984 408.256C235.176 408.437 235.411 408.587 235.688 408.704C235.976 408.811 236.371 408.933 236.872 409.072C237.501 409.243 238.013 409.413 238.408 409.584C238.803 409.744 239.139 409.989 239.416 410.32C239.704 410.651 239.853 411.083 239.864 411.616C239.864 412.096 239.731 412.528 239.464 412.912C239.197 413.296 238.819 413.6 238.328 413.824C237.848 414.037 237.293 414.144 236.664 414.144ZM245.744 414.144C244.922 414.144 244.176 413.957 243.504 413.584C242.842 413.211 242.32 412.683 241.936 412C241.562 411.307 241.376 410.507 241.376 409.6C241.376 408.704 241.568 407.915 241.952 407.232C242.346 406.539 242.88 406.011 243.552 405.648C244.224 405.275 244.976 405.088 245.808 405.088C246.64 405.088 247.392 405.275 248.064 405.648C248.736 406.011 249.264 406.533 249.648 407.216C250.042 407.899 250.24 408.693 250.24 409.6C250.24 410.507 250.037 411.307 249.632 412C249.237 412.683 248.698 413.211 248.016 413.584C247.333 413.957 246.576 414.144 245.744 414.144ZM245.744 412.864C246.266 412.864 246.757 412.741 247.216 412.496C247.674 412.251 248.042 411.883 248.32 411.392C248.608 410.901 248.752 410.304 248.752 409.6C248.752 408.896 248.613 408.299 248.336 407.808C248.058 407.317 247.696 406.955 247.248 406.72C246.8 406.475 246.314 406.352 245.792 406.352C245.258 406.352 244.768 406.475 244.32 406.72C243.882 406.955 243.53 407.317 243.264 407.808C242.997 408.299 242.864 408.896 242.864 409.6C242.864 410.315 242.992 410.917 243.248 411.408C243.514 411.899 243.866 412.267 244.304 412.512C244.741 412.747 245.221 412.864 245.744 412.864ZM255.978 414.144C255.157 414.144 254.41 413.957 253.738 413.584C253.077 413.211 252.554 412.683 252.17 412C251.797 411.307 251.61 410.507 251.61 409.6C251.61 408.704 251.802 407.915 252.186 407.232C252.581 406.539 253.114 406.011 253.786 405.648C254.458 405.275 255.21 405.088 256.042 405.088C256.874 405.088 257.626 405.275 258.298 405.648C258.97 406.011 259.498 406.533 259.882 407.216C260.277 407.899 260.474 408.693 260.474 409.6C260.474 410.507 260.271 411.307 259.866 412C259.471 412.683 258.933 413.211 258.25 413.584C257.567 413.957 256.81 414.144 255.978 414.144ZM255.978 412.864C256.501 412.864 256.991 412.741 257.45 412.496C257.909 412.251 258.277 411.883 258.554 411.392C258.842 410.901 258.986 410.304 258.986 409.6C258.986 408.896 258.847 408.299 258.57 407.808C258.293 407.317 257.93 406.955 257.482 406.72C257.034 406.475 256.549 406.352 256.026 406.352C255.493 406.352 255.002 406.475 254.554 406.72C254.117 406.955 253.765 407.317 253.498 407.808C253.231 408.299 253.098 408.896 253.098 409.6C253.098 410.315 253.226 410.917 253.482 411.408C253.749 411.899 254.101 412.267 254.538 412.512C254.975 412.747 255.455 412.864 255.978 412.864ZM266.66 405.072C267.727 405.072 268.591 405.397 269.252 406.048C269.914 406.688 270.244 407.616 270.244 408.832V414H268.804V409.04C268.804 408.165 268.586 407.499 268.148 407.04C267.711 406.571 267.114 406.336 266.356 406.336C265.588 406.336 264.975 406.576 264.516 407.056C264.068 407.536 263.844 408.235 263.844 409.152V414H262.388V405.232H263.844V406.48C264.132 406.032 264.522 405.685 265.012 405.44C265.514 405.195 266.063 405.072 266.66 405.072Z" fill="white"/>
<path opacity="0.8" d="M173.688 943.911H177.592V945.095H172.232V933.943H173.688V943.911ZM182.962 945.239C182.141 945.239 181.394 945.052 180.722 944.679C180.061 944.305 179.538 943.777 179.154 943.095C178.781 942.401 178.594 941.601 178.594 940.695C178.594 939.799 178.786 939.009 179.17 938.327C179.565 937.633 180.098 937.105 180.77 936.743C181.442 936.369 182.194 936.183 183.026 936.183C183.858 936.183 184.61 936.369 185.282 936.743C185.954 937.105 186.482 937.628 186.866 938.311C187.261 938.993 187.458 939.788 187.458 940.695C187.458 941.601 187.256 942.401 186.85 943.095C186.456 943.777 185.917 944.305 185.234 944.679C184.552 945.052 183.794 945.239 182.962 945.239ZM182.962 943.959C183.485 943.959 183.976 943.836 184.434 943.591C184.893 943.345 185.261 942.977 185.538 942.487C185.826 941.996 185.97 941.399 185.97 940.695C185.97 939.991 185.832 939.393 185.554 938.903C185.277 938.412 184.914 938.049 184.466 937.815C184.018 937.569 183.533 937.447 183.01 937.447C182.477 937.447 181.986 937.569 181.538 937.815C181.101 938.049 180.749 938.412 180.482 938.903C180.216 939.393 180.082 939.991 180.082 940.695C180.082 941.409 180.21 942.012 180.466 942.503C180.733 942.993 181.085 943.361 181.522 943.607C181.96 943.841 182.44 943.959 182.962 943.959ZM192.989 936.183C193.746 936.183 194.407 936.348 194.973 936.679C195.549 937.009 195.975 937.425 196.253 937.927V936.327H197.725V945.287C197.725 946.087 197.554 946.796 197.213 947.415C196.871 948.044 196.381 948.535 195.741 948.887C195.111 949.239 194.375 949.415 193.533 949.415C192.381 949.415 191.421 949.143 190.653 948.599C189.885 948.055 189.431 947.313 189.293 946.375H190.733C190.893 946.908 191.223 947.335 191.725 947.655C192.226 947.985 192.829 948.151 193.533 948.151C194.333 948.151 194.983 947.9 195.485 947.399C195.997 946.897 196.253 946.193 196.253 945.287V943.447C195.965 943.959 195.538 944.385 194.973 944.727C194.407 945.068 193.746 945.239 192.989 945.239C192.21 945.239 191.501 945.047 190.861 944.663C190.231 944.279 189.735 943.74 189.373 943.047C189.01 942.353 188.829 941.564 188.829 940.679C188.829 939.783 189.01 938.999 189.373 938.327C189.735 937.644 190.231 937.116 190.861 936.743C191.501 936.369 192.21 936.183 192.989 936.183ZM196.253 940.695C196.253 940.033 196.119 939.457 195.853 938.967C195.586 938.476 195.223 938.103 194.765 937.847C194.317 937.58 193.821 937.447 193.277 937.447C192.733 937.447 192.237 937.575 191.789 937.831C191.341 938.087 190.983 938.46 190.717 938.951C190.45 939.441 190.317 940.017 190.317 940.679C190.317 941.351 190.45 941.937 190.717 942.439C190.983 942.929 191.341 943.308 191.789 943.575C192.237 943.831 192.733 943.959 193.277 943.959C193.821 943.959 194.317 943.831 194.765 943.575C195.223 943.308 195.586 942.929 195.853 942.439C196.119 941.937 196.253 941.356 196.253 940.695ZM204.009 945.239C203.188 945.239 202.441 945.052 201.769 944.679C201.108 944.305 200.585 943.777 200.201 943.095C199.828 942.401 199.641 941.601 199.641 940.695C199.641 939.799 199.833 939.009 200.217 938.327C200.612 937.633 201.145 937.105 201.817 936.743C202.489 936.369 203.241 936.183 204.073 936.183C204.905 936.183 205.657 936.369 206.329 936.743C207.001 937.105 207.529 937.628 207.913 938.311C208.308 938.993 208.505 939.788 208.505 940.695C208.505 941.601 208.302 942.401 207.897 943.095C207.502 943.777 206.964 944.305 206.281 944.679C205.598 945.052 204.841 945.239 204.009 945.239ZM204.009 943.959C204.532 943.959 205.022 943.836 205.481 943.591C205.94 943.345 206.308 942.977 206.585 942.487C206.873 941.996 207.017 941.399 207.017 940.695C207.017 939.991 206.878 939.393 206.601 938.903C206.324 938.412 205.961 938.049 205.513 937.815C205.065 937.569 204.58 937.447 204.057 937.447C203.524 937.447 203.033 937.569 202.585 937.815C202.148 938.049 201.796 938.412 201.529 938.903C201.262 939.393 201.129 939.991 201.129 940.695C201.129 941.409 201.257 942.012 201.513 942.503C201.78 942.993 202.132 943.361 202.569 943.607C203.006 943.841 203.486 943.959 204.009 943.959ZM218.196 936.327V945.095H216.74V943.799C216.462 944.247 216.073 944.599 215.572 944.855C215.081 945.1 214.537 945.223 213.94 945.223C213.257 945.223 212.644 945.084 212.1 944.807C211.556 944.519 211.124 944.092 210.804 943.527C210.494 942.961 210.34 942.273 210.34 941.463V936.327H211.78V941.271C211.78 942.135 211.998 942.801 212.436 943.271C212.873 943.729 213.47 943.959 214.228 943.959C215.006 943.959 215.62 943.719 216.068 943.239C216.516 942.759 216.74 942.06 216.74 941.143V936.327H218.196ZM222.43 937.527V942.695C222.43 943.121 222.521 943.425 222.702 943.607C222.883 943.777 223.198 943.863 223.646 943.863H224.718V945.095H223.406C222.595 945.095 221.987 944.908 221.582 944.535C221.177 944.161 220.974 943.548 220.974 942.695V937.527H219.838V936.327H220.974V934.119H222.43V936.327H224.718V937.527H222.43Z" fill="white"/>
<path opacity="0.8" d="M164.688 554.416C164.688 553.328 164.933 552.352 165.424 551.488C165.915 550.613 166.581 549.931 167.424 549.44C168.277 548.949 169.221 548.704 170.256 548.704C171.472 548.704 172.533 548.997 173.44 549.584C174.347 550.171 175.008 551.003 175.424 552.08H173.68C173.371 551.408 172.923 550.891 172.336 550.528C171.76 550.165 171.067 549.984 170.256 549.984C169.477 549.984 168.779 550.165 168.16 550.528C167.541 550.891 167.056 551.408 166.704 552.08C166.352 552.741 166.176 553.52 166.176 554.416C166.176 555.301 166.352 556.08 166.704 556.752C167.056 557.413 167.541 557.925 168.16 558.288C168.779 558.651 169.477 558.832 170.256 558.832C171.067 558.832 171.76 558.656 172.336 558.304C172.923 557.941 173.371 557.424 173.68 556.752H175.424C175.008 557.819 174.347 558.645 173.44 559.232C172.533 559.808 171.472 560.096 170.256 560.096C169.221 560.096 168.277 559.856 167.424 559.376C166.581 558.885 165.915 558.208 165.424 557.344C164.933 556.48 164.688 555.504 164.688 554.416ZM181.415 560.144C180.594 560.144 179.847 559.957 179.175 559.584C178.514 559.211 177.991 558.683 177.607 558C177.234 557.307 177.047 556.507 177.047 555.6C177.047 554.704 177.239 553.915 177.623 553.232C178.018 552.539 178.551 552.011 179.223 551.648C179.895 551.275 180.647 551.088 181.479 551.088C182.311 551.088 183.063 551.275 183.735 551.648C184.407 552.011 184.935 552.533 185.319 553.216C185.714 553.899 185.911 554.693 185.911 555.6C185.911 556.507 185.709 557.307 185.303 558C184.909 558.683 184.37 559.211 183.687 559.584C183.005 559.957 182.247 560.144 181.415 560.144ZM181.415 558.864C181.938 558.864 182.429 558.741 182.887 558.496C183.346 558.251 183.714 557.883 183.991 557.392C184.279 556.901 184.423 556.304 184.423 555.6C184.423 554.896 184.285 554.299 184.007 553.808C183.73 553.317 183.367 552.955 182.919 552.72C182.471 552.475 181.986 552.352 181.463 552.352C180.93 552.352 180.439 552.475 179.991 552.72C179.554 552.955 179.202 553.317 178.935 553.808C178.669 554.299 178.535 554.896 178.535 555.6C178.535 556.315 178.663 556.917 178.919 557.408C179.186 557.899 179.538 558.267 179.975 558.512C180.413 558.747 180.893 558.864 181.415 558.864ZM198.37 551.072C199.052 551.072 199.66 551.216 200.194 551.504C200.727 551.781 201.148 552.203 201.458 552.768C201.767 553.333 201.922 554.021 201.922 554.832V560H200.482V555.04C200.482 554.165 200.263 553.499 199.826 553.04C199.399 552.571 198.818 552.336 198.082 552.336C197.324 552.336 196.722 552.581 196.274 553.072C195.826 553.552 195.602 554.251 195.602 555.168V560H194.162V555.04C194.162 554.165 193.943 553.499 193.506 553.04C193.079 552.571 192.498 552.336 191.762 552.336C191.004 552.336 190.402 552.581 189.954 553.072C189.506 553.552 189.282 554.251 189.282 555.168V560H187.826V551.232H189.282V552.496C189.57 552.037 189.954 551.685 190.434 551.44C190.924 551.195 191.463 551.072 192.05 551.072C192.786 551.072 193.436 551.237 194.002 551.568C194.567 551.899 194.988 552.384 195.266 553.024C195.511 552.405 195.916 551.925 196.482 551.584C197.047 551.243 197.676 551.072 198.37 551.072ZM214.854 551.072C215.537 551.072 216.145 551.216 216.678 551.504C217.211 551.781 217.633 552.203 217.942 552.768C218.251 553.333 218.406 554.021 218.406 554.832V560H216.966V555.04C216.966 554.165 216.747 553.499 216.31 553.04C215.883 552.571 215.302 552.336 214.566 552.336C213.809 552.336 213.206 552.581 212.758 553.072C212.31 553.552 212.086 554.251 212.086 555.168V560H210.646V555.04C210.646 554.165 210.427 553.499 209.99 553.04C209.563 552.571 208.982 552.336 208.246 552.336C207.489 552.336 206.886 552.581 206.438 553.072C205.99 553.552 205.766 554.251 205.766 555.168V560H204.31V551.232H205.766V552.496C206.054 552.037 206.438 551.685 206.918 551.44C207.409 551.195 207.947 551.072 208.534 551.072C209.27 551.072 209.921 551.237 210.486 551.568C211.051 551.899 211.473 552.384 211.75 553.024C211.995 552.405 212.401 551.925 212.966 551.584C213.531 551.243 214.161 551.072 214.854 551.072ZM228.571 551.232V560H227.115V558.704C226.837 559.152 226.448 559.504 225.947 559.76C225.456 560.005 224.912 560.128 224.315 560.128C223.632 560.128 223.019 559.989 222.475 559.712C221.931 559.424 221.499 558.997 221.179 558.432C220.869 557.867 220.715 557.179 220.715 556.368V551.232H222.155V556.176C222.155 557.04 222.373 557.707 222.811 558.176C223.248 558.635 223.845 558.864 224.603 558.864C225.381 558.864 225.995 558.624 226.443 558.144C226.891 557.664 227.115 556.965 227.115 556.048V551.232H228.571ZM235.301 551.072C236.368 551.072 237.232 551.397 237.893 552.048C238.554 552.688 238.885 553.616 238.885 554.832V560H237.445V555.04C237.445 554.165 237.226 553.499 236.789 553.04C236.352 552.571 235.754 552.336 234.997 552.336C234.229 552.336 233.616 552.576 233.157 553.056C232.709 553.536 232.485 554.235 232.485 555.152V560H231.029V551.232H232.485V552.48C232.773 552.032 233.162 551.685 233.653 551.44C234.154 551.195 234.704 551.072 235.301 551.072ZM242.015 549.808C241.738 549.808 241.503 549.712 241.311 549.52C241.119 549.328 241.023 549.093 241.023 548.816C241.023 548.539 241.119 548.304 241.311 548.112C241.503 547.92 241.738 547.824 242.015 547.824C242.282 547.824 242.506 547.92 242.687 548.112C242.879 548.304 242.975 548.539 242.975 548.816C242.975 549.093 242.879 549.328 242.687 549.52C242.506 549.712 242.282 549.808 242.015 549.808ZM242.719 551.232V560H241.263V551.232H242.719ZM246.977 552.432V557.6C246.977 558.027 247.067 558.331 247.249 558.512C247.43 558.683 247.745 558.768 248.193 558.768H249.265V560H247.953C247.142 560 246.534 559.813 246.129 559.44C245.723 559.067 245.521 558.453 245.521 557.6V552.432H244.385V551.232H245.521V549.024H246.977V551.232H249.265V552.432H246.977ZM258.581 551.232L253.301 564.128H251.797L253.525 559.904L249.989 551.232H251.605L254.357 558.336L257.077 551.232H258.581Z" fill="white"/>
<path opacity="0.8" d="M168.768 617.112C168.032 617.112 167.371 616.984 166.784 616.728C166.208 616.461 165.755 616.099 165.424 615.64C165.093 615.171 164.923 614.632 164.912 614.024H166.464C166.517 614.547 166.731 614.989 167.104 615.352C167.488 615.704 168.043 615.88 168.768 615.88C169.461 615.88 170.005 615.709 170.4 615.368C170.805 615.016 171.008 614.568 171.008 614.024C171.008 613.597 170.891 613.251 170.656 612.984C170.421 612.717 170.128 612.515 169.776 612.376C169.424 612.237 168.949 612.088 168.352 611.928C167.616 611.736 167.024 611.544 166.576 611.352C166.139 611.16 165.76 610.861 165.44 610.456C165.131 610.04 164.976 609.485 164.976 608.792C164.976 608.184 165.131 607.645 165.44 607.176C165.749 606.707 166.181 606.344 166.736 606.088C167.301 605.832 167.947 605.704 168.672 605.704C169.717 605.704 170.571 605.965 171.232 606.488C171.904 607.011 172.283 607.704 172.368 608.568H170.768C170.715 608.141 170.491 607.768 170.096 607.448C169.701 607.117 169.179 606.952 168.528 606.952C167.92 606.952 167.424 607.112 167.04 607.432C166.656 607.741 166.464 608.179 166.464 608.744C166.464 609.149 166.576 609.48 166.8 609.736C167.035 609.992 167.317 610.189 167.648 610.328C167.989 610.456 168.464 610.605 169.072 610.776C169.808 610.979 170.4 611.181 170.848 611.384C171.296 611.576 171.68 611.88 172 612.296C172.32 612.701 172.48 613.256 172.48 613.96C172.48 614.504 172.336 615.016 172.048 615.496C171.76 615.976 171.333 616.365 170.768 616.664C170.203 616.963 169.536 617.112 168.768 617.112ZM178.447 617.144C177.625 617.144 176.879 616.957 176.207 616.584C175.545 616.211 175.023 615.683 174.639 615C174.265 614.307 174.079 613.507 174.079 612.6C174.079 611.704 174.271 610.915 174.655 610.232C175.049 609.539 175.583 609.011 176.255 608.648C176.927 608.275 177.679 608.088 178.511 608.088C179.343 608.088 180.095 608.275 180.767 608.648C181.439 609.011 181.967 609.533 182.351 610.216C182.745 610.899 182.943 611.693 182.943 612.6C182.943 613.507 182.74 614.307 182.335 615C181.94 615.683 181.401 616.211 180.719 616.584C180.036 616.957 179.279 617.144 178.447 617.144ZM178.447 615.864C178.969 615.864 179.46 615.741 179.919 615.496C180.377 615.251 180.745 614.883 181.023 614.392C181.311 613.901 181.455 613.304 181.455 612.6C181.455 611.896 181.316 611.299 181.039 610.808C180.761 610.317 180.399 609.955 179.951 609.72C179.503 609.475 179.017 609.352 178.495 609.352C177.961 609.352 177.471 609.475 177.023 609.72C176.585 609.955 176.233 610.317 175.967 610.808C175.7 611.299 175.567 611.896 175.567 612.6C175.567 613.315 175.695 613.917 175.951 614.408C176.217 614.899 176.569 615.267 177.007 615.512C177.444 615.747 177.924 615.864 178.447 615.864ZM184.313 612.6C184.313 611.693 184.494 610.904 184.857 610.232C185.22 609.549 185.721 609.021 186.361 608.648C187.012 608.275 187.753 608.088 188.585 608.088C189.662 608.088 190.548 608.349 191.241 608.872C191.945 609.395 192.409 610.12 192.633 611.048H191.065C190.916 610.515 190.622 610.093 190.185 609.784C189.758 609.475 189.225 609.32 188.585 609.32C187.753 609.32 187.081 609.608 186.569 610.184C186.057 610.749 185.801 611.555 185.801 612.6C185.801 613.656 186.057 614.472 186.569 615.048C187.081 615.624 187.753 615.912 188.585 615.912C189.225 615.912 189.758 615.763 190.185 615.464C190.612 615.165 190.905 614.739 191.065 614.184H192.633C192.398 615.08 191.929 615.8 191.225 616.344C190.521 616.877 189.641 617.144 188.585 617.144C187.753 617.144 187.012 616.957 186.361 616.584C185.721 616.211 185.22 615.683 184.857 615C184.494 614.317 184.313 613.517 184.313 612.6ZM195.328 606.808C195.05 606.808 194.816 606.712 194.624 606.52C194.432 606.328 194.336 606.093 194.336 605.816C194.336 605.539 194.432 605.304 194.624 605.112C194.816 604.92 195.05 604.824 195.328 604.824C195.594 604.824 195.818 604.92 196 605.112C196.192 605.304 196.288 605.539 196.288 605.816C196.288 606.093 196.192 606.328 196 606.52C195.818 606.712 195.594 606.808 195.328 606.808ZM196.032 608.232V617H194.576V608.232H196.032ZM197.969 612.584C197.969 611.688 198.151 610.904 198.513 610.232C198.876 609.549 199.372 609.021 200.001 608.648C200.641 608.275 201.351 608.088 202.129 608.088C202.897 608.088 203.564 608.253 204.129 608.584C204.695 608.915 205.116 609.331 205.393 609.832V608.232H206.865V617H205.393V615.368C205.105 615.88 204.673 616.307 204.097 616.648C203.532 616.979 202.871 617.144 202.113 617.144C201.335 617.144 200.631 616.952 200.001 616.568C199.372 616.184 198.876 615.645 198.513 614.952C198.151 614.259 197.969 613.469 197.969 612.584ZM205.393 612.6C205.393 611.939 205.26 611.363 204.993 610.872C204.727 610.381 204.364 610.008 203.905 609.752C203.457 609.485 202.961 609.352 202.417 609.352C201.873 609.352 201.377 609.48 200.929 609.736C200.481 609.992 200.124 610.365 199.857 610.856C199.591 611.347 199.457 611.923 199.457 612.584C199.457 613.256 199.591 613.843 199.857 614.344C200.124 614.835 200.481 615.213 200.929 615.48C201.377 615.736 201.873 615.864 202.417 615.864C202.961 615.864 203.457 615.736 203.905 615.48C204.364 615.213 204.727 614.835 204.993 614.344C205.26 613.843 205.393 613.261 205.393 612.6ZM210.782 605.16V617H209.326V605.16H210.782Z" fill="white"/>
<path opacity="0.8" d="M175.768 898.207C175.032 898.207 174.371 898.079 173.784 897.823C173.208 897.556 172.755 897.193 172.424 896.735C172.093 896.265 171.923 895.727 171.912 895.119H173.464C173.517 895.641 173.731 896.084 174.104 896.447C174.488 896.799 175.043 896.975 175.768 896.975C176.461 896.975 177.005 896.804 177.4 896.463C177.805 896.111 178.008 895.663 178.008 895.119C178.008 894.692 177.891 894.345 177.656 894.079C177.421 893.812 177.128 893.609 176.776 893.471C176.424 893.332 175.949 893.183 175.352 893.023C174.616 892.831 174.024 892.639 173.576 892.447C173.139 892.255 172.76 891.956 172.44 891.551C172.131 891.135 171.976 890.58 171.976 889.887C171.976 889.279 172.131 888.74 172.44 888.271C172.749 887.801 173.181 887.439 173.736 887.183C174.301 886.927 174.947 886.799 175.672 886.799C176.717 886.799 177.571 887.06 178.232 887.583C178.904 888.105 179.283 888.799 179.368 889.663H177.768C177.715 889.236 177.491 888.863 177.096 888.543C176.701 888.212 176.179 888.047 175.528 888.047C174.92 888.047 174.424 888.207 174.04 888.527C173.656 888.836 173.464 889.273 173.464 889.839C173.464 890.244 173.576 890.575 173.8 890.831C174.035 891.087 174.317 891.284 174.648 891.423C174.989 891.551 175.464 891.7 176.072 891.871C176.808 892.073 177.4 892.276 177.848 892.479C178.296 892.671 178.68 892.975 179 893.391C179.32 893.796 179.48 894.351 179.48 895.055C179.48 895.599 179.336 896.111 179.048 896.591C178.76 897.071 178.333 897.46 177.768 897.759C177.203 898.057 176.536 898.207 175.768 898.207ZM189.623 893.375C189.623 893.652 189.607 893.945 189.575 894.255H182.567C182.62 895.119 182.913 895.796 183.447 896.287C183.991 896.767 184.647 897.007 185.415 897.007C186.044 897.007 186.567 896.863 186.983 896.575C187.409 896.276 187.708 895.881 187.879 895.391H189.447C189.212 896.233 188.743 896.921 188.039 897.455C187.335 897.977 186.46 898.239 185.415 898.239C184.583 898.239 183.836 898.052 183.175 897.679C182.524 897.305 182.012 896.777 181.639 896.095C181.265 895.401 181.079 894.601 181.079 893.695C181.079 892.788 181.26 891.993 181.623 891.311C181.985 890.628 182.492 890.105 183.143 889.743C183.804 889.369 184.561 889.183 185.415 889.183C186.247 889.183 186.983 889.364 187.623 889.727C188.263 890.089 188.753 890.591 189.095 891.231C189.447 891.86 189.623 892.575 189.623 893.375ZM188.119 893.071C188.119 892.516 187.996 892.041 187.751 891.647C187.505 891.241 187.169 890.937 186.743 890.735C186.327 890.521 185.863 890.415 185.351 890.415C184.615 890.415 183.985 890.649 183.463 891.119C182.951 891.588 182.657 892.239 182.583 893.071H188.119ZM193.321 890.527V895.695C193.321 896.121 193.411 896.425 193.593 896.607C193.774 896.777 194.089 896.863 194.536 896.863H195.609V898.095H194.297C193.486 898.095 192.878 897.908 192.473 897.535C192.067 897.161 191.865 896.548 191.865 895.695V890.527H190.729V889.327H191.865V887.119H193.321V889.327H195.609V890.527H193.321ZM199.149 890.527V895.695C199.149 896.121 199.239 896.425 199.421 896.607C199.602 896.777 199.917 896.863 200.365 896.863H201.437V898.095H200.125C199.314 898.095 198.706 897.908 198.301 897.535C197.895 897.161 197.693 896.548 197.693 895.695V890.527H196.557V889.327H197.693V887.119H199.149V889.327H201.437V890.527H199.149ZM203.953 887.903C203.675 887.903 203.441 887.807 203.249 887.615C203.057 887.423 202.961 887.188 202.961 886.911C202.961 886.633 203.057 886.399 203.249 886.207C203.441 886.015 203.675 885.919 203.953 885.919C204.219 885.919 204.443 886.015 204.625 886.207C204.817 886.399 204.913 886.633 204.913 886.911C204.913 887.188 204.817 887.423 204.625 887.615C204.443 887.807 204.219 887.903 203.953 887.903ZM204.657 889.327V898.095H203.201V889.327H204.657ZM211.41 889.167C212.477 889.167 213.341 889.492 214.002 890.143C214.664 890.783 214.994 891.711 214.994 892.927V898.095H213.554V893.135C213.554 892.26 213.336 891.593 212.898 891.135C212.461 890.665 211.864 890.431 211.106 890.431C210.338 890.431 209.725 890.671 209.266 891.151C208.818 891.631 208.594 892.329 208.594 893.247V898.095H207.138V889.327H208.594V890.575C208.882 890.127 209.272 889.78 209.762 889.535C210.264 889.289 210.813 889.167 211.41 889.167ZM220.989 889.183C221.746 889.183 222.407 889.348 222.973 889.679C223.549 890.009 223.975 890.425 224.253 890.927V889.327H225.725V898.287C225.725 899.087 225.554 899.796 225.213 900.415C224.871 901.044 224.381 901.535 223.741 901.887C223.111 902.239 222.375 902.415 221.533 902.415C220.381 902.415 219.421 902.143 218.653 901.599C217.885 901.055 217.431 900.313 217.293 899.375H218.733C218.893 899.908 219.223 900.335 219.725 900.655C220.226 900.985 220.829 901.151 221.533 901.151C222.333 901.151 222.983 900.9 223.485 900.399C223.997 899.897 224.253 899.193 224.253 898.287V896.447C223.965 896.959 223.538 897.385 222.973 897.727C222.407 898.068 221.746 898.239 220.989 898.239C220.21 898.239 219.501 898.047 218.861 897.663C218.231 897.279 217.735 896.74 217.373 896.047C217.01 895.353 216.829 894.564 216.829 893.679C216.829 892.783 217.01 891.999 217.373 891.327C217.735 890.644 218.231 890.116 218.861 889.743C219.501 889.369 220.21 889.183 220.989 889.183ZM224.253 893.695C224.253 893.033 224.119 892.457 223.853 891.967C223.586 891.476 223.223 891.103 222.765 890.847C222.317 890.58 221.821 890.447 221.277 890.447C220.733 890.447 220.237 890.575 219.789 890.831C219.341 891.087 218.983 891.46 218.717 891.951C218.45 892.441 218.317 893.017 218.317 893.679C218.317 894.351 218.45 894.937 218.717 895.439C218.983 895.929 219.341 896.308 219.789 896.575C220.237 896.831 220.733 896.959 221.277 896.959C221.821 896.959 222.317 896.831 222.765 896.575C223.223 896.308 223.586 895.929 223.853 895.439C224.119 894.937 224.253 894.356 224.253 893.695ZM231.289 898.239C230.617 898.239 230.014 898.127 229.481 897.903C228.948 897.668 228.526 897.348 228.217 896.943C227.908 896.527 227.737 896.052 227.705 895.519H229.209C229.252 895.956 229.454 896.313 229.817 896.591C230.19 896.868 230.676 897.007 231.273 897.007C231.828 897.007 232.265 896.884 232.585 896.639C232.905 896.393 233.065 896.084 233.065 895.711C233.065 895.327 232.894 895.044 232.553 894.863C232.212 894.671 231.684 894.484 230.969 894.303C230.318 894.132 229.785 893.961 229.369 893.791C228.964 893.609 228.612 893.348 228.313 893.007C228.025 892.655 227.881 892.196 227.881 891.631C227.881 891.183 228.014 890.772 228.281 890.399C228.548 890.025 228.926 889.732 229.417 889.519C229.908 889.295 230.468 889.183 231.097 889.183C232.068 889.183 232.852 889.428 233.449 889.919C234.046 890.409 234.366 891.081 234.409 891.935H232.953C232.921 891.476 232.734 891.108 232.393 890.831C232.062 890.553 231.614 890.415 231.049 890.415C230.526 890.415 230.11 890.527 229.801 890.751C229.492 890.975 229.337 891.268 229.337 891.631C229.337 891.919 229.428 892.159 229.609 892.351C229.801 892.532 230.036 892.681 230.313 892.799C230.601 892.905 230.996 893.028 231.497 893.167C232.126 893.337 232.638 893.508 233.033 893.679C233.428 893.839 233.764 894.084 234.041 894.415C234.329 894.745 234.478 895.177 234.489 895.711C234.489 896.191 234.356 896.623 234.089 897.007C233.822 897.391 233.444 897.695 232.953 897.919C232.473 898.132 231.918 898.239 231.289 898.239Z" fill="white"/>
<g opacity="0.8">
<path d="M147.82 222H132.18C130.976 222 130 222.976 130 224.18V239.82C130 241.024 130.976 242 132.18 242H147.82C149.024 242 150 241.024 150 239.82V224.18C150 222.976 149.024 222 147.82 222Z" stroke="white" stroke-width="2" stroke-linecap="round" stroke-linejoin="round"/>
<path d="M135 222V242" stroke="white" stroke-width="2" stroke-linecap="round" stroke-linejoin="round"/>
<path d="M145 222V242" stroke="white" stroke-width="2" stroke-linecap="round" stroke-linejoin="round"/>
<path d="M130 232H150" stroke="white" stroke-width="2" stroke-linecap="round" stroke-linejoin="round"/>
<path d="M130 227H135" stroke="white" stroke-width="2" stroke-linecap="round" stroke-linejoin="round"/>
<path d="M130 237H135" stroke="white" stroke-width="2" stroke-linecap="round" stroke-linejoin="round"/>
<path d="M145 237H150" stroke="white" stroke-width="2" stroke-linecap="round" stroke-linejoin="round"/>
<path d="M145 227H150" stroke="white" stroke-width="2" stroke-linecap="round" stroke-linejoin="round"/>
</g>
<g opacity="0.8">
<path d="M148.84 283.61C148.329 283.099 147.723 282.694 147.055 282.417C146.388 282.141 145.673 281.998 144.95 281.998C144.228 281.998 143.512 282.141 142.845 282.417C142.177 282.694 141.571 283.099 141.06 283.61L140 284.67L138.94 283.61C137.908 282.578 136.509 281.999 135.05 281.999C133.591 281.999 132.192 282.578 131.16 283.61C130.128 284.642 129.549 286.041 129.549 287.5C129.549 288.959 130.128 290.358 131.16 291.39L132.22 292.45L140 300.23L147.78 292.45L148.84 291.39C149.351 290.879 149.756 290.273 150.033 289.605C150.31 288.938 150.452 288.223 150.452 287.5C150.452 286.778 150.31 286.062 150.033 285.395C149.756 284.727 149.351 284.121 148.84 283.61V283.61Z" stroke="white" stroke-width="2" stroke-linecap="round" stroke-linejoin="round"/>
</g>
<path d="M151 344L141.5 353.5L136.5 348.5L129 356" stroke="white" stroke-width="2" stroke-linecap="round" stroke-linejoin="round"/>
<path d="M145 344H151V350" stroke="white" stroke-width="2" stroke-linecap="round" stroke-linejoin="round"/>
<g opacity="0.8">
<path d="M145 563V561C145 559.939 144.579 558.922 143.828 558.172C143.078 557.421 142.061 557 141 557H133C131.939 557 130.922 557.421 130.172 558.172C129.421 558.922 129 559.939 129 561V563" stroke="white" stroke-width="2" stroke-linecap="round" stroke-linejoin="round"/>
<path d="M137 553C139.209 553 141 551.209 141 549C141 546.791 139.209 545 137 545C134.791 545 133 546.791 133 549C133 551.209 134.791 553 137 553Z" stroke="white" stroke-width="2" stroke-linecap="round" stroke-linejoin="round"/>
<path d="M151 563V561C150.999 560.114 150.704 559.253 150.161 558.552C149.618 557.852 148.858 557.351 148 557.13" stroke="white" stroke-width="2" stroke-linecap="round" stroke-linejoin="round"/>
<path d="M144 545.13C144.86 545.35 145.623 545.851 146.168 546.552C146.712 547.254 147.008 548.117 147.008 549.005C147.008 549.893 146.712 550.756 146.168 551.458C145.623 552.159 144.86 552.66 144 552.88" stroke="white" stroke-width="2" stroke-linecap="round" stroke-linejoin="round"/>
</g>
<g opacity="0.8">
<path d="M149 610.5C149.003 611.82 148.695 613.122 148.1 614.3C147.394 615.712 146.31 616.899 144.967 617.729C143.625 618.559 142.078 618.999 140.5 619C139.18 619.003 137.878 618.695 136.7 618.1L131 620L132.9 614.3C132.305 613.122 131.997 611.82 132 610.5C132.001 608.922 132.441 607.375 133.271 606.033C134.101 604.69 135.288 603.606 136.7 602.9C137.878 602.305 139.18 601.997 140.5 602H141C143.084 602.115 145.053 602.995 146.529 604.471C148.005 605.947 148.885 607.916 149 610V610.5Z" stroke="white" stroke-width="2" stroke-linecap="round" stroke-linejoin="round"/>
</g>
<g opacity="0.8">
<path d="M132 901V894" stroke="white" stroke-width="2" stroke-linecap="round" stroke-linejoin="round"/>
<path d="M132 890V883" stroke="white" stroke-width="2" stroke-linecap="round" stroke-linejoin="round"/>
<path d="M140 901V892" stroke="white" stroke-width="2" stroke-linecap="round" stroke-linejoin="round"/>
<path d="M140 888V883" stroke="white" stroke-width="2" stroke-linecap="round" stroke-linejoin="round"/>
<path d="M148 901V896" stroke="white" stroke-width="2" stroke-linecap="round" stroke-linejoin="round"/>
<path d="M148 892V883" stroke="white" stroke-width="2" stroke-linecap="round" stroke-linejoin="round"/>
<path d="M129 894H135" stroke="white" stroke-width="2" stroke-linecap="round" stroke-linejoin="round"/>
<path d="M137 888H143" stroke="white" stroke-width="2" stroke-linecap="round" stroke-linejoin="round"/>
<path d="M145 896H151" stroke="white" stroke-width="2" stroke-linecap="round" stroke-linejoin="round"/>
</g>
<g opacity="0.8">
<path d="M137 948H133C132.47 948 131.961 947.789 131.586 947.414C131.211 947.039 131 946.53 131 946V932C131 931.47 131.211 930.961 131.586 930.586C131.961 930.211 132.47 930 133 930H137" stroke="white" stroke-width="2" stroke-linecap="round" stroke-linejoin="round"/>
<path d="M144 944L149 939L144 934" stroke="white" stroke-width="2" stroke-linecap="round" stroke-linejoin="round"/>
<path d="M149 939H137" stroke="white" stroke-width="2" stroke-linecap="round" stroke-linejoin="round"/>
</g>
<g opacity="0.8">
<path d="M147 400H133C131.895 400 131 400.895 131 402V416C131 417.105 131.895 418 133 418H147C148.105 418 149 417.105 149 416V402C149 400.895 148.105 400 147 400Z" stroke="white" stroke-width="2" stroke-linecap="round" stroke-linejoin="round"/>
<path d="M144 398V402" stroke="white" stroke-width="2" stroke-linecap="round" stroke-linejoin="round"/>
<path d="M136 398V402" stroke="white" stroke-width="2" stroke-linecap="round" stroke-linejoin="round"/>
<path d="M131 406H149" stroke="white" stroke-width="2" stroke-linecap="round" stroke-linejoin="round"/>
</g>
<path d="M190.616 138.556L186.59 154H182.036L179.572 143.836L177.02 154H172.466L168.55 138.556H172.576L174.798 149.798L177.548 138.556H181.684L184.324 149.798L186.568 138.556H190.616ZM203.437 151.272H197.673L196.749 154H192.811L198.399 138.556H202.755L208.343 154H204.361L203.437 151.272ZM202.469 148.368L200.555 142.714L198.663 148.368H202.469ZM222.473 138.556V141.57H218.381V154H214.619V141.57H210.527V138.556H222.473ZM225.043 146.256C225.043 144.731 225.373 143.374 226.033 142.186C226.693 140.983 227.61 140.052 228.783 139.392C229.971 138.717 231.313 138.38 232.809 138.38C234.643 138.38 236.212 138.864 237.517 139.832C238.823 140.8 239.695 142.12 240.135 143.792H235.999C235.691 143.147 235.251 142.655 234.679 142.318C234.122 141.981 233.484 141.812 232.765 141.812C231.607 141.812 230.668 142.215 229.949 143.022C229.231 143.829 228.871 144.907 228.871 146.256C228.871 147.605 229.231 148.683 229.949 149.49C230.668 150.297 231.607 150.7 232.765 150.7C233.484 150.7 234.122 150.531 234.679 150.194C235.251 149.857 235.691 149.365 235.999 148.72H240.135C239.695 150.392 238.823 151.712 237.517 152.68C236.212 153.633 234.643 154.11 232.809 154.11C231.313 154.11 229.971 153.78 228.783 153.12C227.61 152.445 226.693 151.514 226.033 150.326C225.373 149.138 225.043 147.781 225.043 146.256ZM257.135 138.556V154H253.373V147.642H247.521V154H243.759V138.556H247.521V144.606H253.373V138.556H257.135Z" fill="white"/>
<path d="M152 140.667H153.333C154.748 140.667 156.104 141.229 157.105 142.229C158.105 143.229 158.667 144.586 158.667 146C158.667 147.415 158.105 148.771 157.105 149.771C156.104 150.772 154.748 151.333 153.333 151.333H152" stroke="white" stroke-width="2" stroke-linecap="round" stroke-linejoin="round"/>
<path d="M130.667 140.667H152V152.667C152 154.081 151.438 155.438 150.438 156.438C149.438 157.438 148.081 158 146.667 158H136C134.585 158 133.229 157.438 132.229 156.438C131.228 155.438 130.667 154.081 130.667 152.667V140.667Z" fill="white" stroke="white" stroke-width="2" stroke-linecap="round" stroke-linejoin="round"/>
<path d="M136 131.333V135.333" stroke="white" stroke-width="2" stroke-linecap="round" stroke-linejoin="round"/>
<path d="M141.333 131.333V135.333" stroke="#7900C2" stroke-width="2" stroke-linecap="round" stroke-linejoin="round"/>
<path d="M146.667 131.333V135.333" stroke="white" stroke-width="2" stroke-linecap="round" stroke-linejoin="round"/>
<defs>
<filter id="filter0_d_204_246" x="0" y="0" width="454" height="1204" filterUnits="userSpaceOnUse" color-interpolation-filters="sRGB">
<feFlood flood-opacity="0" result="BackgroundImageFix"/>
<feColorMatrix in="SourceAlpha" type="matrix" values="0 0 0 0 0 0 0 0 0 0 0 0 0 0 0 0 0 0 127 0" result="hardAlpha"/>
<feOffset dx="2"/>
<feGaussianBlur stdDeviation="45"/>
<feComposite in2="hardAlpha" operator="out"/>
<feColorMatrix type="matrix" values="0 0 0 0 0.380392 0 0 0 0 0 0 0 0 0 0.760784 0 0 0 0.4 0"/>
<feBlend mode="normal" in2="BackgroundImageFix" result="effect1_dropShadow_204_246"/>
<feBlend mode="normal" in="SourceGraphic" in2="effect1_dropShadow_204_246" result="shape"/>
</filter>
</defs>
</svg>
