<svg width="457" height="49" viewBox="0 0 457 49" fill="none" xmlns="http://www.w3.org/2000/svg">
<path d="M17.864 36.336C14.728 36.336 11.848 35.6 9.224 34.128C6.6 32.656 4.52 30.624 2.984 28.032C1.448 25.408 0.68 22.448 0.68 19.152C0.68 15.888 1.448 12.96 2.984 10.368C4.52 7.744 6.6 5.696 9.224 4.224C11.848 2.752 14.728 2.016 17.864 2.016C21.032 2.016 23.912 2.752 26.504 4.224C29.128 5.696 31.192 7.744 32.696 10.368C34.232 12.96 35 15.888 35 19.152C35 22.448 34.232 25.408 32.696 28.032C31.192 30.624 29.128 32.656 26.504 34.128C23.88 35.6 21 36.336 17.864 36.336ZM17.864 30.336C19.88 30.336 21.656 29.888 23.192 28.992C24.728 28.064 25.928 26.752 26.792 25.056C27.656 23.36 28.088 21.392 28.088 19.152C28.088 16.912 27.656 14.96 26.792 13.296C25.928 11.6 24.728 10.304 23.192 9.408C21.656 8.512 19.88 8.064 17.864 8.064C15.848 8.064 14.056 8.512 12.488 9.408C10.952 10.304 9.752 11.6 8.888 13.296C8.024 14.96 7.592 16.912 7.592 19.152C7.592 21.392 8.024 23.36 8.888 25.056C9.752 26.752 10.952 28.064 12.488 28.992C14.056 29.888 15.848 30.336 17.864 30.336ZM47.8235 14.928V27.792C47.8235 28.688 48.0315 29.344 48.4475 29.76C48.8955 30.144 49.6315 30.336 50.6555 30.336H53.7755V36H49.5515C43.8875 36 41.0555 33.248 41.0555 27.744V14.928H37.8875V9.408H41.0555V2.832H47.8235V9.408H53.7755V14.928H47.8235ZM73.5849 9.024C75.6009 9.024 77.3929 9.472 78.9609 10.368C80.5289 11.232 81.7449 12.528 82.6089 14.256C83.5049 15.952 83.9529 18 83.9529 20.4V36H77.2329V21.312C77.2329 19.2 76.7049 17.584 75.6489 16.464C74.5929 15.312 73.1529 14.736 71.3289 14.736C69.4729 14.736 68.0009 15.312 66.9129 16.464C65.8569 17.584 65.3289 19.2 65.3289 21.312V36H58.6089V0.48H65.3289V12.72C66.1929 11.568 67.3449 10.672 68.7849 10.032C70.2249 9.36 71.8249 9.024 73.5849 9.024ZM115.063 22.128C115.063 23.088 114.999 23.952 114.871 24.72H95.4313C95.5913 26.64 96.2633 28.144 97.4473 29.232C98.6313 30.32 100.087 30.864 101.815 30.864C104.311 30.864 106.087 29.792 107.143 27.648H114.391C113.623 30.208 112.151 32.32 109.975 33.984C107.799 35.616 105.127 36.432 101.959 36.432C99.3993 36.432 97.0953 35.872 95.0473 34.752C93.0313 33.6 91.4473 31.984 90.2953 29.904C89.1753 27.824 88.6152 25.424 88.6152 22.704C88.6152 19.952 89.1753 17.536 90.2953 15.456C91.4153 13.376 92.9833 11.776 94.9993 10.656C97.0153 9.536 99.3353 8.976 101.959 8.976C104.487 8.976 106.743 9.52 108.727 10.608C110.743 11.696 112.295 13.248 113.383 15.264C114.503 17.248 115.063 19.536 115.063 22.128ZM108.103 20.208C108.071 18.48 107.447 17.104 106.231 16.08C105.015 15.024 103.527 14.496 101.767 14.496C100.103 14.496 98.6953 15.008 97.5433 16.032C96.4233 17.024 95.7353 18.416 95.4793 20.208H108.103ZM126.688 13.536C127.552 12.128 128.672 11.024 130.048 10.224C131.456 9.424 133.056 9.024 134.848 9.024V16.08H133.072C130.96 16.08 129.36 16.576 128.272 17.568C127.216 18.56 126.688 20.288 126.688 22.752V36H119.968V9.408H126.688V13.536ZM149.084 22.704C149.084 19.952 149.644 17.552 150.764 15.504C151.884 13.424 153.436 11.824 155.42 10.704C157.404 9.552 159.676 8.976 162.236 8.976C165.532 8.976 168.252 9.808 170.396 11.472C172.572 13.104 174.028 15.408 174.764 18.384H167.516C167.132 17.232 166.476 16.336 165.548 15.696C164.652 15.024 163.532 14.688 162.188 14.688C160.268 14.688 158.748 15.392 157.628 16.8C156.508 18.176 155.948 20.144 155.948 22.704C155.948 25.232 156.508 27.2 157.628 28.608C158.748 29.984 160.268 30.672 162.188 30.672C164.908 30.672 166.684 29.456 167.516 27.024H174.764C174.028 29.904 172.572 32.192 170.396 33.888C168.22 35.584 165.5 36.432 162.236 36.432C159.676 36.432 157.404 35.872 155.42 34.752C153.436 33.6 151.884 32 150.764 29.952C149.644 27.872 149.084 25.456 149.084 22.704ZM191.495 36.432C188.935 36.432 186.631 35.872 184.583 34.752C182.535 33.6 180.919 31.984 179.735 29.904C178.583 27.824 178.007 25.424 178.007 22.704C178.007 19.984 178.599 17.584 179.783 15.504C180.999 13.424 182.647 11.824 184.727 10.704C186.807 9.552 189.127 8.976 191.687 8.976C194.247 8.976 196.567 9.552 198.647 10.704C200.727 11.824 202.359 13.424 203.543 15.504C204.759 17.584 205.367 19.984 205.367 22.704C205.367 25.424 204.743 27.824 203.495 29.904C202.279 31.984 200.615 33.6 198.503 34.752C196.423 35.872 194.087 36.432 191.495 36.432ZM191.495 30.576C192.711 30.576 193.847 30.288 194.903 29.712C195.991 29.104 196.855 28.208 197.495 27.024C198.135 25.84 198.455 24.4 198.455 22.704C198.455 20.176 197.783 18.24 196.439 16.896C195.127 15.52 193.511 14.832 191.591 14.832C189.671 14.832 188.055 15.52 186.743 16.896C185.463 18.24 184.823 20.176 184.823 22.704C184.823 25.232 185.447 27.184 186.695 28.56C187.975 29.904 189.575 30.576 191.495 30.576ZM243.32 9.024C246.584 9.024 249.208 10.032 251.192 12.048C253.208 14.032 254.216 16.816 254.216 20.4V36H247.496V21.312C247.496 19.232 246.968 17.648 245.912 16.56C244.856 15.44 243.416 14.88 241.592 14.88C239.768 14.88 238.312 15.44 237.224 16.56C236.168 17.648 235.64 19.232 235.64 21.312V36H228.92V21.312C228.92 19.232 228.392 17.648 227.336 16.56C226.28 15.44 224.84 14.88 223.016 14.88C221.16 14.88 219.688 15.44 218.6 16.56C217.544 17.648 217.016 19.232 217.016 21.312V36H210.296V9.408H217.016V12.624C217.88 11.504 218.984 10.624 220.328 9.984C221.704 9.344 223.208 9.024 224.84 9.024C226.92 9.024 228.776 9.472 230.408 10.368C232.04 11.232 233.304 12.48 234.2 14.112C235.064 12.576 236.312 11.344 237.944 10.416C239.608 9.488 241.4 9.024 243.32 9.024ZM267.313 13.248C268.177 12.032 269.361 11.024 270.865 10.224C272.401 9.392 274.145 8.976 276.097 8.976C278.369 8.976 280.417 9.536 282.241 10.656C284.097 11.776 285.553 13.376 286.609 15.456C287.697 17.504 288.241 19.888 288.241 22.608C288.241 25.328 287.697 27.744 286.609 29.856C285.553 31.936 284.097 33.552 282.241 34.704C280.417 35.856 278.369 36.432 276.097 36.432C274.145 36.432 272.417 36.032 270.913 35.232C269.441 34.432 268.241 33.424 267.313 32.208V48.672H260.593V9.408H267.313V13.248ZM281.377 22.608C281.377 21.008 281.041 19.632 280.369 18.48C279.729 17.296 278.865 16.4 277.777 15.792C276.721 15.184 275.569 14.88 274.321 14.88C273.105 14.88 271.953 15.2 270.865 15.84C269.809 16.448 268.945 17.344 268.273 18.528C267.633 19.712 267.313 21.104 267.313 22.704C267.313 24.304 267.633 25.696 268.273 26.88C268.945 28.064 269.809 28.976 270.865 29.616C271.953 30.224 273.105 30.528 274.321 30.528C275.569 30.528 276.721 30.208 277.777 29.568C278.865 28.928 279.729 28.016 280.369 26.832C281.041 25.648 281.377 24.24 281.377 22.608ZM304.933 36.432C302.373 36.432 300.069 35.872 298.021 34.752C295.973 33.6 294.357 31.984 293.173 29.904C292.021 27.824 291.445 25.424 291.445 22.704C291.445 19.984 292.037 17.584 293.221 15.504C294.437 13.424 296.085 11.824 298.165 10.704C300.245 9.552 302.565 8.976 305.125 8.976C307.685 8.976 310.005 9.552 312.085 10.704C314.165 11.824 315.797 13.424 316.981 15.504C318.197 17.584 318.805 19.984 318.805 22.704C318.805 25.424 318.181 27.824 316.932 29.904C315.717 31.984 314.053 33.6 311.941 34.752C309.861 35.872 307.525 36.432 304.933 36.432ZM304.933 30.576C306.149 30.576 307.285 30.288 308.341 29.712C309.429 29.104 310.293 28.208 310.933 27.024C311.573 25.84 311.893 24.4 311.893 22.704C311.893 20.176 311.221 18.24 309.877 16.896C308.565 15.52 306.949 14.832 305.029 14.832C303.109 14.832 301.493 15.52 300.181 16.896C298.901 18.24 298.261 20.176 298.261 22.704C298.261 25.232 298.885 27.184 300.133 28.56C301.413 29.904 303.013 30.576 304.933 30.576ZM338.47 9.024C341.638 9.024 344.198 10.032 346.15 12.048C348.102 14.032 349.078 16.816 349.078 20.4V36H342.358V21.312C342.358 19.2 341.83 17.584 340.774 16.464C339.718 15.312 338.278 14.736 336.454 14.736C334.598 14.736 333.126 15.312 332.038 16.464C330.982 17.584 330.454 19.2 330.454 21.312V36H323.734V9.408H330.454V12.72C331.35 11.568 332.486 10.672 333.862 10.032C335.27 9.36 336.806 9.024 338.47 9.024ZM380.188 22.128C380.188 23.088 380.124 23.952 379.996 24.72H360.556C360.716 26.64 361.388 28.144 362.572 29.232C363.756 30.32 365.212 30.864 366.94 30.864C369.436 30.864 371.212 29.792 372.268 27.648H379.516C378.748 30.208 377.276 32.32 375.1 33.984C372.924 35.616 370.252 36.432 367.084 36.432C364.524 36.432 362.22 35.872 360.172 34.752C358.156 33.6 356.572 31.984 355.42 29.904C354.3 27.824 353.74 25.424 353.74 22.704C353.74 19.952 354.3 17.536 355.42 15.456C356.54 13.376 358.108 11.776 360.124 10.656C362.14 9.536 364.46 8.976 367.084 8.976C369.612 8.976 371.868 9.52 373.852 10.608C375.868 11.696 377.42 13.248 378.508 15.264C379.628 17.248 380.188 19.536 380.188 22.128ZM373.228 20.208C373.196 18.48 372.572 17.104 371.356 16.08C370.14 15.024 368.652 14.496 366.892 14.496C365.228 14.496 363.82 15.008 362.668 16.032C361.548 17.024 360.86 18.416 360.604 20.208H373.228ZM399.829 9.024C402.997 9.024 405.557 10.032 407.509 12.048C409.461 14.032 410.437 16.816 410.437 20.4V36H403.717V21.312C403.717 19.2 403.189 17.584 402.133 16.464C401.077 15.312 399.637 14.736 397.813 14.736C395.957 14.736 394.485 15.312 393.397 16.464C392.341 17.584 391.813 19.2 391.813 21.312V36H385.093V9.408H391.813V12.72C392.709 11.568 393.845 10.672 395.221 10.032C396.629 9.36 398.165 9.024 399.829 9.024ZM424.652 14.928V27.792C424.652 28.688 424.86 29.344 425.276 29.76C425.724 30.144 426.46 30.336 427.484 30.336H430.604V36H426.38C420.716 36 417.884 33.248 417.884 27.744V14.928H414.716V9.408H417.884V2.832H424.652V9.408H430.604V14.928H424.652ZM445.613 36.432C443.437 36.432 441.485 36.048 439.757 35.28C438.029 34.48 436.653 33.408 435.629 32.064C434.637 30.72 434.093 29.232 433.997 27.6H440.765C440.893 28.624 441.389 29.472 442.253 30.144C443.149 30.816 444.253 31.152 445.565 31.152C446.845 31.152 447.837 30.896 448.541 30.384C449.277 29.872 449.645 29.216 449.645 28.416C449.645 27.552 449.197 26.912 448.301 26.496C447.437 26.048 446.045 25.568 444.125 25.056C442.141 24.576 440.509 24.08 439.229 23.568C437.981 23.056 436.893 22.272 435.965 21.216C435.069 20.16 434.621 18.736 434.621 16.944C434.621 15.472 435.037 14.128 435.869 12.912C436.733 11.696 437.949 10.736 439.517 10.032C441.117 9.328 442.989 8.976 445.133 8.976C448.301 8.976 450.829 9.776 452.717 11.376C454.605 12.944 455.645 15.072 455.837 17.76H449.405C449.309 16.704 448.861 15.872 448.061 15.264C447.293 14.624 446.253 14.304 444.941 14.304C443.725 14.304 442.781 14.528 442.109 14.976C441.469 15.424 441.149 16.048 441.149 16.848C441.149 17.744 441.597 18.432 442.493 18.912C443.389 19.36 444.781 19.824 446.669 20.304C448.589 20.784 450.173 21.28 451.421 21.792C452.669 22.304 453.741 23.104 454.637 24.192C455.565 25.248 456.045 26.656 456.077 28.416C456.077 29.952 455.645 31.328 454.781 32.544C453.949 33.76 452.733 34.72 451.133 35.424C449.565 36.096 447.725 36.432 445.613 36.432Z" fill="white"/>
</svg>
