<svg width="98" height="98" viewBox="0 0 98 98" fill="none" xmlns="http://www.w3.org/2000/svg">
<g opacity="0.96" filter="url(#filter0_b_204_67)">
<path d="M49 97C75.5097 97 97 75.5097 97 49C97 22.4903 75.5097 1 49 1C22.4903 1 1 22.4903 1 49C1 75.5097 22.4903 97 49 97Z" fill="url(#paint0_linear_204_67)"/>
<path d="M49 97C75.5097 97 97 75.5097 97 49C97 22.4903 75.5097 1 49 1C22.4903 1 1 22.4903 1 49C1 75.5097 22.4903 97 49 97Z" stroke="url(#paint1_linear_204_67)" stroke-width="2" stroke-linecap="round" stroke-linejoin="round"/>
</g>
<defs>
<filter id="filter0_b_204_67" x="-24" y="-24" width="146" height="146" filterUnits="userSpaceOnUse" color-interpolation-filters="sRGB">
<feFlood flood-opacity="0" result="BackgroundImageFix"/>
<feGaussianBlur in="BackgroundImageFix" stdDeviation="12"/>
<feComposite in2="SourceAlpha" operator="in" result="effect1_backgroundBlur_204_67"/>
<feBlend mode="normal" in="SourceGraphic" in2="effect1_backgroundBlur_204_67" result="shape"/>
</filter>
<linearGradient id="paint0_linear_204_67" x1="-8" y1="-129.666" x2="102.989" y2="-129.654" gradientUnits="userSpaceOnUse">
<stop stop-color="white" stop-opacity="0.62"/>
<stop offset="1" stop-color="white" stop-opacity="0.78"/>
</linearGradient>
<linearGradient id="paint1_linear_204_67" x1="25.7412" y1="-91.6666" x2="106.555" y2="-90.7864" gradientUnits="userSpaceOnUse">
<stop stop-color="#F5F5F5" stop-opacity="0.9"/>
<stop offset="1" stop-color="white" stop-opacity="0.5"/>
</linearGradient>
</defs>
</svg>
