<svg width="1360" height="74" viewBox="0 0 1360 74" fill="none" xmlns="http://www.w3.org/2000/svg">
<g filter="url(#filter0_b_11_70)">
<rect width="1360" height="72" rx="8" fill="url(#paint0_linear_11_70)"/>
<path d="M26 28H22V44H26V28Z" stroke="white" stroke-width="2" stroke-linecap="round" stroke-linejoin="round"/>
<path d="M34 28H30V44H34V28Z" stroke="white" stroke-width="2" stroke-linecap="round" stroke-linejoin="round"/>
<rect x="63" y="32" width="1007" height="8" rx="4" fill="white"/>
<g filter="url(#filter1_d_11_70)">
<rect x="63" y="32" width="306.093" height="8" rx="4" fill="#6100C2"/>
</g>
<path d="M1093.61 31.76V30.432H1096.62V42H1095.14V31.76H1093.61ZM1098.73 31.76V30.432H1101.74V42H1100.27V31.76H1098.73ZM1104.95 42.096C1104.67 42.096 1104.43 42 1104.24 41.808C1104.05 41.616 1103.95 41.3813 1103.95 41.104C1103.95 40.8267 1104.05 40.592 1104.24 40.4C1104.43 40.208 1104.67 40.112 1104.95 40.112C1105.21 40.112 1105.44 40.208 1105.62 40.4C1105.81 40.592 1105.91 40.8267 1105.91 41.104C1105.91 41.3813 1105.81 41.616 1105.62 41.808C1105.44 42 1105.21 42.096 1104.95 42.096ZM1104.95 35.248C1104.67 35.248 1104.43 35.152 1104.24 34.96C1104.05 34.768 1103.95 34.5333 1103.95 34.256C1103.95 33.9787 1104.05 33.744 1104.24 33.552C1104.43 33.36 1104.67 33.264 1104.95 33.264C1105.21 33.264 1105.44 33.36 1105.62 33.552C1105.81 33.744 1105.91 33.9787 1105.91 34.256C1105.91 34.5333 1105.81 34.768 1105.62 34.96C1105.44 35.152 1105.21 35.248 1104.95 35.248ZM1107.47 40.832C1108.83 39.744 1109.89 38.8533 1110.66 38.16C1111.42 37.456 1112.07 36.7253 1112.59 35.968C1113.13 35.2 1113.39 34.448 1113.39 33.712C1113.39 33.0187 1113.22 32.4747 1112.88 32.08C1112.55 31.6747 1112.01 31.472 1111.26 31.472C1110.54 31.472 1109.97 31.7013 1109.57 32.16C1109.17 32.608 1108.96 33.2107 1108.93 33.968H1107.52C1107.56 32.7733 1107.93 31.8507 1108.61 31.2C1109.29 30.5493 1110.17 30.224 1111.25 30.224C1112.35 30.224 1113.22 30.528 1113.86 31.136C1114.51 31.744 1114.83 32.5813 1114.83 33.648C1114.83 34.5333 1114.57 35.3973 1114.03 36.24C1113.51 37.072 1112.91 37.808 1112.24 38.448C1111.57 39.0773 1110.71 39.8133 1109.66 40.656H1115.17V41.872H1107.47V40.832ZM1116.82 33.344C1116.89 32.3627 1117.27 31.5947 1117.96 31.04C1118.64 30.4853 1119.52 30.208 1120.61 30.208C1121.34 30.208 1121.96 30.3413 1122.48 30.608C1123.02 30.864 1123.42 31.216 1123.68 31.664C1123.96 32.112 1124.1 32.6187 1124.1 33.184C1124.1 33.8453 1123.91 34.416 1123.52 34.896C1123.15 35.376 1122.66 35.6853 1122.05 35.824V35.904C1122.74 36.0747 1123.29 36.4107 1123.7 36.912C1124.1 37.4133 1124.31 38.0693 1124.31 38.88C1124.31 39.488 1124.17 40.0373 1123.89 40.528C1123.61 41.008 1123.2 41.3867 1122.64 41.664C1122.09 41.9413 1121.42 42.08 1120.64 42.08C1119.51 42.08 1118.58 41.7867 1117.86 41.2C1117.13 40.6027 1116.73 39.76 1116.64 38.672H1118.05C1118.13 39.312 1118.39 39.8347 1118.84 40.24C1119.28 40.6453 1119.88 40.848 1120.63 40.848C1121.37 40.848 1121.94 40.656 1122.32 40.272C1122.72 39.8773 1122.92 39.3707 1122.92 38.752C1122.92 37.952 1122.65 37.376 1122.12 37.024C1121.58 36.672 1120.78 36.496 1119.7 36.496H1119.33V35.28H1119.72C1120.7 35.2693 1121.44 35.1093 1121.94 34.8C1122.44 34.48 1122.69 33.9893 1122.69 33.328C1122.69 32.7627 1122.5 32.3093 1122.13 31.968C1121.77 31.6267 1121.25 31.456 1120.56 31.456C1119.9 31.456 1119.37 31.6267 1118.96 31.968C1118.56 32.3093 1118.32 32.768 1118.24 33.344H1116.82ZM1131.95 26.928L1127.57 44.72H1126.13L1130.5 26.928H1131.95ZM1133.85 33.344C1133.93 32.3627 1134.3 31.5947 1134.99 31.04C1135.67 30.4853 1136.55 30.208 1137.64 30.208C1138.37 30.208 1138.99 30.3413 1139.51 30.608C1140.05 30.864 1140.45 31.216 1140.71 31.664C1140.99 32.112 1141.13 32.6187 1141.13 33.184C1141.13 33.8453 1140.94 34.416 1140.55 34.896C1140.18 35.376 1139.69 35.6853 1139.08 35.824V35.904C1139.78 36.0747 1140.33 36.4107 1140.73 36.912C1141.14 37.4133 1141.34 38.0693 1141.34 38.88C1141.34 39.488 1141.2 40.0373 1140.92 40.528C1140.65 41.008 1140.23 41.3867 1139.67 41.664C1139.12 41.9413 1138.45 42.08 1137.67 42.08C1136.54 42.08 1135.62 41.7867 1134.89 41.2C1134.17 40.6027 1133.76 39.76 1133.67 38.672H1135.08C1135.16 39.312 1135.42 39.8347 1135.87 40.24C1136.31 40.6453 1136.91 40.848 1137.66 40.848C1138.41 40.848 1138.97 40.656 1139.35 40.272C1139.75 39.8773 1139.95 39.3707 1139.95 38.752C1139.95 37.952 1139.68 37.376 1139.15 37.024C1138.61 36.672 1137.81 36.496 1136.73 36.496H1136.36V35.28H1136.75C1137.73 35.2693 1138.47 35.1093 1138.97 34.8C1139.47 34.48 1139.72 33.9893 1139.72 33.328C1139.72 32.7627 1139.54 32.3093 1139.16 31.968C1138.8 31.6267 1138.28 31.456 1137.59 31.456C1136.93 31.456 1136.4 31.6267 1135.99 31.968C1135.59 32.3093 1135.35 32.768 1135.27 33.344H1133.85ZM1145.18 38.896C1145.28 39.504 1145.53 39.9733 1145.91 40.304C1146.31 40.6347 1146.84 40.8 1147.5 40.8C1148.38 40.8 1149.03 40.4533 1149.45 39.76C1149.88 39.0667 1150.08 37.8987 1150.06 36.256C1149.83 36.736 1149.46 37.1147 1148.94 37.392C1148.41 37.6587 1147.83 37.792 1147.19 37.792C1146.48 37.792 1145.84 37.648 1145.27 37.36C1144.72 37.0613 1144.28 36.6293 1143.96 36.064C1143.64 35.4987 1143.48 34.816 1143.48 34.016C1143.48 32.8747 1143.81 31.9573 1144.47 31.264C1145.13 30.56 1146.07 30.208 1147.29 30.208C1148.78 30.208 1149.83 30.6933 1150.42 31.664C1151.03 32.6347 1151.34 34.08 1151.34 36C1151.34 37.344 1151.21 38.4533 1150.97 39.328C1150.73 40.2027 1150.33 40.8693 1149.75 41.328C1149.19 41.7867 1148.41 42.016 1147.42 42.016C1146.33 42.016 1145.48 41.7227 1144.87 41.136C1144.26 40.5493 1143.92 39.8027 1143.83 38.896H1145.18ZM1147.43 36.56C1148.15 36.56 1148.73 36.3413 1149.19 35.904C1149.65 35.456 1149.88 34.8533 1149.88 34.096C1149.88 33.296 1149.66 32.6507 1149.21 32.16C1148.76 31.6693 1148.13 31.424 1147.32 31.424C1146.57 31.424 1145.98 31.6587 1145.53 32.128C1145.09 32.5973 1144.87 33.216 1144.87 33.984C1144.87 34.7627 1145.09 35.3867 1145.53 35.856C1145.97 36.3253 1146.6 36.56 1147.43 36.56ZM1154.09 42.096C1153.81 42.096 1153.57 42 1153.38 41.808C1153.19 41.616 1153.09 41.3813 1153.09 41.104C1153.09 40.8267 1153.19 40.592 1153.38 40.4C1153.57 40.208 1153.81 40.112 1154.09 40.112C1154.35 40.112 1154.58 40.208 1154.76 40.4C1154.95 40.592 1155.05 40.8267 1155.05 41.104C1155.05 41.3813 1154.95 41.616 1154.76 41.808C1154.58 42 1154.35 42.096 1154.09 42.096ZM1154.09 35.248C1153.81 35.248 1153.57 35.152 1153.38 34.96C1153.19 34.768 1153.09 34.5333 1153.09 34.256C1153.09 33.9787 1153.19 33.744 1153.38 33.552C1153.57 33.36 1153.81 33.264 1154.09 33.264C1154.35 33.264 1154.58 33.36 1154.76 33.552C1154.95 33.744 1155.05 33.9787 1155.05 34.256C1155.05 34.5333 1154.95 34.768 1154.76 34.96C1154.58 35.152 1154.35 35.248 1154.09 35.248ZM1156.79 36.096C1156.79 34.2613 1157.09 32.832 1157.68 31.808C1158.28 30.7733 1159.33 30.256 1160.82 30.256C1162.3 30.256 1163.34 30.7733 1163.94 31.808C1164.54 32.832 1164.84 34.2613 1164.84 36.096C1164.84 37.9627 1164.54 39.4133 1163.94 40.448C1163.34 41.4827 1162.3 42 1160.82 42C1159.33 42 1158.28 41.4827 1157.68 40.448C1157.09 39.4133 1156.79 37.9627 1156.79 36.096ZM1163.4 36.096C1163.4 35.168 1163.33 34.384 1163.2 33.744C1163.09 33.0933 1162.84 32.5707 1162.45 32.176C1162.08 31.7813 1161.54 31.584 1160.82 31.584C1160.1 31.584 1159.54 31.7813 1159.16 32.176C1158.78 32.5707 1158.53 33.0933 1158.4 33.744C1158.29 34.384 1158.23 35.168 1158.23 36.096C1158.23 37.056 1158.29 37.8613 1158.4 38.512C1158.53 39.1627 1158.78 39.6853 1159.16 40.08C1159.54 40.4747 1160.1 40.672 1160.82 40.672C1161.54 40.672 1162.08 40.4747 1162.45 40.08C1162.84 39.6853 1163.09 39.1627 1163.2 38.512C1163.33 37.8613 1163.4 37.056 1163.4 36.096ZM1166.48 39.424V38.32L1172.1 30.544H1173.84V38.16H1175.44V39.424H1173.84V42H1172.4V39.424H1166.48ZM1172.47 32.064L1168.16 38.16H1172.47V32.064Z" fill="white"/>
<path d="M1219 29L1214 33H1210V39H1214L1219 43V29Z" stroke="white" stroke-width="2" stroke-linecap="round" stroke-linejoin="round"/>
<path d="M1227.07 28.9299C1228.94 30.8052 1230 33.3483 1230 35.9999C1230 38.6516 1228.94 41.1947 1227.07 43.0699M1223.54 32.4599C1224.48 33.3976 1225 34.6691 1225 35.9949C1225 37.3208 1224.48 38.5923 1223.54 39.5299" stroke="white" stroke-width="2" stroke-linecap="round" stroke-linejoin="round"/>
<path d="M1268 45V38" stroke="white" stroke-width="2" stroke-linecap="round" stroke-linejoin="round"/>
<path d="M1268 34V27" stroke="white" stroke-width="2" stroke-linecap="round" stroke-linejoin="round"/>
<path d="M1276 45V36" stroke="white" stroke-width="2" stroke-linecap="round" stroke-linejoin="round"/>
<path d="M1276 32V27" stroke="white" stroke-width="2" stroke-linecap="round" stroke-linejoin="round"/>
<path d="M1284 45V40" stroke="white" stroke-width="2" stroke-linecap="round" stroke-linejoin="round"/>
<path d="M1284 36V27" stroke="white" stroke-width="2" stroke-linecap="round" stroke-linejoin="round"/>
<path d="M1265 38H1271" stroke="white" stroke-width="2" stroke-linecap="round" stroke-linejoin="round"/>
<path d="M1273 32H1279" stroke="white" stroke-width="2" stroke-linecap="round" stroke-linejoin="round"/>
<path d="M1281 40H1287" stroke="white" stroke-width="2" stroke-linecap="round" stroke-linejoin="round"/>
<path d="M1328 27H1325C1324.47 27 1323.96 27.2107 1323.59 27.5858C1323.21 27.9609 1323 28.4696 1323 29V32M1341 32V29C1341 28.4696 1340.79 27.9609 1340.41 27.5858C1340.04 27.2107 1339.53 27 1339 27H1336M1336 45H1339C1339.53 45 1340.04 44.7893 1340.41 44.4142C1340.79 44.0391 1341 43.5304 1341 43V40M1323 40V43C1323 43.5304 1323.21 44.0391 1323.59 44.4142C1323.96 44.7893 1324.47 45 1325 45H1328" stroke="white" stroke-width="2" stroke-linecap="round" stroke-linejoin="round"/>
<rect x="0.5" y="0.5" width="1359" height="71" rx="7.5" stroke="url(#paint1_linear_11_70)"/>
</g>
<defs>
<filter id="filter0_b_11_70" x="-60" y="-60" width="1480" height="192" filterUnits="userSpaceOnUse" color-interpolation-filters="sRGB">
<feFlood flood-opacity="0" result="BackgroundImageFix"/>
<feGaussianBlur in="BackgroundImageFix" stdDeviation="30"/>
<feComposite in2="SourceAlpha" operator="in" result="effect1_backgroundBlur_11_70"/>
<feBlend mode="normal" in="SourceGraphic" in2="effect1_backgroundBlur_11_70" result="shape"/>
</filter>
<filter id="filter1_d_11_70" x="37" y="8" width="364.093" height="66" filterUnits="userSpaceOnUse" color-interpolation-filters="sRGB">
<feFlood flood-opacity="0" result="BackgroundImageFix"/>
<feColorMatrix in="SourceAlpha" type="matrix" values="0 0 0 0 0 0 0 0 0 0 0 0 0 0 0 0 0 0 127 0" result="hardAlpha"/>
<feOffset dx="3" dy="5"/>
<feGaussianBlur stdDeviation="14.5"/>
<feComposite in2="hardAlpha" operator="out"/>
<feColorMatrix type="matrix" values="0 0 0 0 0.437257 0 0 0 0 0.0578472 0 0 0 0 0.816667 0 0 0 1 0"/>
<feBlend mode="normal" in2="BackgroundImageFix" result="effect1_dropShadow_11_70"/>
<feBlend mode="normal" in="SourceGraphic" in2="effect1_dropShadow_11_70" result="shape"/>
</filter>
<linearGradient id="paint0_linear_11_70" x1="-127.5" y1="-97.9994" x2="1444.84" y2="-94.8279" gradientUnits="userSpaceOnUse">
<stop stop-color="white" stop-opacity="0.5"/>
<stop offset="1" stop-color="white" stop-opacity="0.4"/>
</linearGradient>
<linearGradient id="paint1_linear_11_70" x1="350.5" y1="-69.5" x2="1449" y2="156.5" gradientUnits="userSpaceOnUse">
<stop stop-color="#F5F5F5" stop-opacity="0.9"/>
<stop offset="1" stop-color="white" stop-opacity="0.5"/>
</linearGradient>
</defs>
</svg>
