<svg width="1362" height="74" viewBox="0 0 1362 74" fill="none" xmlns="http://www.w3.org/2000/svg">
<g filter="url(#filter0_b_102_621)">
<rect width="1362" height="72" rx="8" fill="url(#paint0_linear_102_621)"/>
<path d="M21 27L35 36L21 45V27Z" stroke="white" stroke-width="2" stroke-linecap="round" stroke-linejoin="round"/>
<rect x="63" y="32" width="1007" height="8" rx="4" fill="white"/>
<g filter="url(#filter1_d_102_621)">
<rect x="63" y="32" width="491" height="8" rx="4" fill="#6100C2"/>
</g>
<path d="M1093.61 31.76V30.432H1096.62V42H1095.14V31.76H1093.61ZM1100.99 38.896C1101.1 39.504 1101.34 39.9733 1101.73 40.304C1102.12 40.6347 1102.65 40.8 1103.31 40.8C1104.19 40.8 1104.85 40.4533 1105.26 39.76C1105.69 39.0667 1105.89 37.8987 1105.87 36.256C1105.65 36.736 1105.27 37.1147 1104.75 37.392C1104.23 37.6587 1103.65 37.792 1103.01 37.792C1102.29 37.792 1101.65 37.648 1101.09 37.36C1100.53 37.0613 1100.09 36.6293 1099.77 36.064C1099.45 35.4987 1099.29 34.816 1099.29 34.016C1099.29 32.8747 1099.62 31.9573 1100.29 31.264C1100.95 30.56 1101.89 30.208 1103.1 30.208C1104.59 30.208 1105.64 30.6933 1106.24 31.664C1106.85 32.6347 1107.15 34.08 1107.15 36C1107.15 37.344 1107.03 38.4533 1106.78 39.328C1106.55 40.2027 1106.14 40.8693 1105.57 41.328C1105 41.7867 1104.22 42.016 1103.23 42.016C1102.14 42.016 1101.29 41.7227 1100.69 41.136C1100.08 40.5493 1099.73 39.8027 1099.65 38.896H1100.99ZM1103.25 36.56C1103.96 36.56 1104.55 36.3413 1105.01 35.904C1105.46 35.456 1105.69 34.8533 1105.69 34.096C1105.69 33.296 1105.47 32.6507 1105.02 32.16C1104.57 31.6693 1103.94 31.424 1103.13 31.424C1102.39 31.424 1101.79 31.6587 1101.34 32.128C1100.9 32.5973 1100.69 33.216 1100.69 33.984C1100.69 34.7627 1100.9 35.3867 1101.34 35.856C1101.78 36.3253 1102.41 36.56 1103.25 36.56ZM1109.9 42.096C1109.62 42.096 1109.39 42 1109.2 41.808C1109 41.616 1108.91 41.3813 1108.91 41.104C1108.91 40.8267 1109 40.592 1109.2 40.4C1109.39 40.208 1109.62 40.112 1109.9 40.112C1110.17 40.112 1110.39 40.208 1110.57 40.4C1110.76 40.592 1110.86 40.8267 1110.86 41.104C1110.86 41.3813 1110.76 41.616 1110.57 41.808C1110.39 42 1110.17 42.096 1109.9 42.096ZM1109.9 35.248C1109.62 35.248 1109.39 35.152 1109.2 34.96C1109 34.768 1108.91 34.5333 1108.91 34.256C1108.91 33.9787 1109 33.744 1109.2 33.552C1109.39 33.36 1109.62 33.264 1109.9 33.264C1110.17 33.264 1110.39 33.36 1110.57 33.552C1110.76 33.744 1110.86 33.9787 1110.86 34.256C1110.86 34.5333 1110.76 34.768 1110.57 34.96C1110.39 35.152 1110.17 35.248 1109.9 35.248ZM1112.25 39.424V38.32L1117.87 30.544H1119.61V38.16H1121.21V39.424H1119.61V42H1118.17V39.424H1112.25ZM1118.23 32.064L1113.93 38.16H1118.23V32.064ZM1122.28 31.76V30.432H1125.29V42H1123.82V31.76H1122.28ZM1133.47 26.928L1129.08 44.72H1127.64L1132.01 26.928H1133.47ZM1135.37 33.344C1135.44 32.3627 1135.82 31.5947 1136.5 31.04C1137.18 30.4853 1138.07 30.208 1139.16 30.208C1139.88 30.208 1140.51 30.3413 1141.03 30.608C1141.56 30.864 1141.96 31.216 1142.23 31.664C1142.51 32.112 1142.65 32.6187 1142.65 33.184C1142.65 33.8453 1142.45 34.416 1142.07 34.896C1141.7 35.376 1141.21 35.6853 1140.6 35.824V35.904C1141.29 36.0747 1141.84 36.4107 1142.25 36.912C1142.65 37.4133 1142.85 38.0693 1142.85 38.88C1142.85 39.488 1142.72 40.0373 1142.44 40.528C1142.16 41.008 1141.74 41.3867 1141.19 41.664C1140.64 41.9413 1139.97 42.08 1139.19 42.08C1138.06 42.08 1137.13 41.7867 1136.41 41.2C1135.68 40.6027 1135.28 39.76 1135.19 38.672H1136.6C1136.67 39.312 1136.93 39.8347 1137.38 40.24C1137.83 40.6453 1138.43 40.848 1139.17 40.848C1139.92 40.848 1140.49 40.656 1140.87 40.272C1141.26 39.8773 1141.46 39.3707 1141.46 38.752C1141.46 37.952 1141.2 37.376 1140.66 37.024C1140.13 36.672 1139.32 36.496 1138.25 36.496H1137.88V35.28H1138.26C1139.24 35.2693 1139.98 35.1093 1140.49 34.8C1140.99 34.48 1141.24 33.9893 1141.24 33.328C1141.24 32.7627 1141.05 32.3093 1140.68 31.968C1140.32 31.6267 1139.79 31.456 1139.11 31.456C1138.45 31.456 1137.92 31.6267 1137.51 31.968C1137.1 32.3093 1136.86 32.768 1136.79 33.344H1135.37ZM1146.69 38.896C1146.8 39.504 1147.04 39.9733 1147.43 40.304C1147.82 40.6347 1148.35 40.8 1149.01 40.8C1149.9 40.8 1150.55 40.4533 1150.96 39.76C1151.39 39.0667 1151.59 37.8987 1151.57 36.256C1151.35 36.736 1150.97 37.1147 1150.45 37.392C1149.93 37.6587 1149.35 37.792 1148.71 37.792C1147.99 37.792 1147.35 37.648 1146.79 37.36C1146.23 37.0613 1145.8 36.6293 1145.48 36.064C1145.16 35.4987 1145 34.816 1145 34.016C1145 32.8747 1145.33 31.9573 1145.99 31.264C1146.65 30.56 1147.59 30.208 1148.8 30.208C1150.3 30.208 1151.34 30.6933 1151.94 31.664C1152.55 32.6347 1152.85 34.08 1152.85 36C1152.85 37.344 1152.73 38.4533 1152.48 39.328C1152.25 40.2027 1151.84 40.8693 1151.27 41.328C1150.7 41.7867 1149.92 42.016 1148.93 42.016C1147.84 42.016 1147 41.7227 1146.39 41.136C1145.78 40.5493 1145.43 39.8027 1145.35 38.896H1146.69ZM1148.95 36.56C1149.66 36.56 1150.25 36.3413 1150.71 35.904C1151.17 35.456 1151.4 34.8533 1151.4 34.096C1151.4 33.296 1151.17 32.6507 1150.72 32.16C1150.28 31.6693 1149.65 31.424 1148.84 31.424C1148.09 31.424 1147.49 31.6587 1147.04 32.128C1146.61 32.5973 1146.39 33.216 1146.39 33.984C1146.39 34.7627 1146.61 35.3867 1147.04 35.856C1147.48 36.3253 1148.12 36.56 1148.95 36.56ZM1155.6 42.096C1155.32 42.096 1155.09 42 1154.9 41.808C1154.71 41.616 1154.61 41.3813 1154.61 41.104C1154.61 40.8267 1154.71 40.592 1154.9 40.4C1155.09 40.208 1155.32 40.112 1155.6 40.112C1155.87 40.112 1156.09 40.208 1156.27 40.4C1156.47 40.592 1156.56 40.8267 1156.56 41.104C1156.56 41.3813 1156.47 41.616 1156.27 41.808C1156.09 42 1155.87 42.096 1155.6 42.096ZM1155.6 35.248C1155.32 35.248 1155.09 35.152 1154.9 34.96C1154.71 34.768 1154.61 34.5333 1154.61 34.256C1154.61 33.9787 1154.71 33.744 1154.9 33.552C1155.09 33.36 1155.32 33.264 1155.6 33.264C1155.87 33.264 1156.09 33.36 1156.27 33.552C1156.47 33.744 1156.56 33.9787 1156.56 34.256C1156.56 34.5333 1156.47 34.768 1156.27 34.96C1156.09 35.152 1155.87 35.248 1155.6 35.248ZM1158.3 36.096C1158.3 34.2613 1158.6 32.832 1159.2 31.808C1159.8 30.7733 1160.84 30.256 1162.34 30.256C1163.82 30.256 1164.86 30.7733 1165.46 31.808C1166.05 32.832 1166.35 34.2613 1166.35 36.096C1166.35 37.9627 1166.05 39.4133 1165.46 40.448C1164.86 41.4827 1163.82 42 1162.34 42C1160.84 42 1159.8 41.4827 1159.2 40.448C1158.6 39.4133 1158.3 37.9627 1158.3 36.096ZM1164.91 36.096C1164.91 35.168 1164.85 34.384 1164.72 33.744C1164.6 33.0933 1164.35 32.5707 1163.97 32.176C1163.6 31.7813 1163.05 31.584 1162.34 31.584C1161.61 31.584 1161.06 31.7813 1160.67 32.176C1160.3 32.5707 1160.05 33.0933 1159.92 33.744C1159.8 34.384 1159.74 35.168 1159.74 36.096C1159.74 37.056 1159.8 37.8613 1159.92 38.512C1160.05 39.1627 1160.3 39.6853 1160.67 40.08C1161.06 40.4747 1161.61 40.672 1162.34 40.672C1163.05 40.672 1163.6 40.4747 1163.97 40.08C1164.35 39.6853 1164.6 39.1627 1164.72 38.512C1164.85 37.8613 1164.91 37.056 1164.91 36.096ZM1168 39.424V38.32L1173.62 30.544H1175.36V38.16H1176.96V39.424H1175.36V42H1173.92V39.424H1168ZM1173.98 32.064L1169.68 38.16H1173.98V32.064Z" fill="white"/>
<path d="M1221 29L1216 33H1212V39H1216L1221 43V29Z" stroke="white" stroke-width="2" stroke-linecap="round" stroke-linejoin="round"/>
<path d="M1229.07 28.9299C1230.94 30.8052 1232 33.3483 1232 35.9999C1232 38.6516 1230.94 41.1947 1229.07 43.0699M1225.54 32.4599C1226.48 33.3976 1227 34.6691 1227 35.9949C1227 37.3208 1226.48 38.5923 1225.54 39.5299" stroke="white" stroke-width="2" stroke-linecap="round" stroke-linejoin="round"/>
<path d="M1270 45V38" stroke="white" stroke-width="2" stroke-linecap="round" stroke-linejoin="round"/>
<path d="M1270 34V27" stroke="white" stroke-width="2" stroke-linecap="round" stroke-linejoin="round"/>
<path d="M1278 45V36" stroke="white" stroke-width="2" stroke-linecap="round" stroke-linejoin="round"/>
<path d="M1278 32V27" stroke="white" stroke-width="2" stroke-linecap="round" stroke-linejoin="round"/>
<path d="M1286 45V40" stroke="white" stroke-width="2" stroke-linecap="round" stroke-linejoin="round"/>
<path d="M1286 36V27" stroke="white" stroke-width="2" stroke-linecap="round" stroke-linejoin="round"/>
<path d="M1267 38H1273" stroke="white" stroke-width="2" stroke-linecap="round" stroke-linejoin="round"/>
<path d="M1275 32H1281" stroke="white" stroke-width="2" stroke-linecap="round" stroke-linejoin="round"/>
<path d="M1283 40H1289" stroke="white" stroke-width="2" stroke-linecap="round" stroke-linejoin="round"/>
<path d="M1330 27H1327C1326.47 27 1325.96 27.2107 1325.59 27.5858C1325.21 27.9609 1325 28.4696 1325 29V32M1343 32V29C1343 28.4696 1342.79 27.9609 1342.41 27.5858C1342.04 27.2107 1341.53 27 1341 27H1338M1338 45H1341C1341.53 45 1342.04 44.7893 1342.41 44.4142C1342.79 44.0391 1343 43.5304 1343 43V40M1325 40V43C1325 43.5304 1325.21 44.0391 1325.59 44.4142C1325.96 44.7893 1326.47 45 1327 45H1330" stroke="white" stroke-width="2" stroke-linecap="round" stroke-linejoin="round"/>
<rect x="0.5" y="0.5" width="1361" height="71" rx="7.5" stroke="url(#paint1_linear_102_621)"/>
</g>
<defs>
<filter id="filter0_b_102_621" x="-60" y="-60" width="1482" height="192" filterUnits="userSpaceOnUse" color-interpolation-filters="sRGB">
<feFlood flood-opacity="0" result="BackgroundImageFix"/>
<feGaussianBlur in="BackgroundImageFix" stdDeviation="30"/>
<feComposite in2="SourceAlpha" operator="in" result="effect1_backgroundBlur_102_621"/>
<feBlend mode="normal" in="SourceGraphic" in2="effect1_backgroundBlur_102_621" result="shape"/>
</filter>
<filter id="filter1_d_102_621" x="37" y="8" width="549" height="66" filterUnits="userSpaceOnUse" color-interpolation-filters="sRGB">
<feFlood flood-opacity="0" result="BackgroundImageFix"/>
<feColorMatrix in="SourceAlpha" type="matrix" values="0 0 0 0 0 0 0 0 0 0 0 0 0 0 0 0 0 0 127 0" result="hardAlpha"/>
<feOffset dx="3" dy="5"/>
<feGaussianBlur stdDeviation="14.5"/>
<feComposite in2="hardAlpha" operator="out"/>
<feColorMatrix type="matrix" values="0 0 0 0 0.437257 0 0 0 0 0.0578472 0 0 0 0 0.816667 0 0 0 1 0"/>
<feBlend mode="normal" in2="BackgroundImageFix" result="effect1_dropShadow_102_621"/>
<feBlend mode="normal" in="SourceGraphic" in2="effect1_dropShadow_102_621" result="shape"/>
</filter>
<linearGradient id="paint0_linear_102_621" x1="-127.688" y1="-97.9994" x2="1446.96" y2="-94.8186" gradientUnits="userSpaceOnUse">
<stop stop-color="white" stop-opacity="0.5"/>
<stop offset="1" stop-color="white" stop-opacity="0.4"/>
</linearGradient>
<linearGradient id="paint1_linear_102_621" x1="351.016" y1="-69.5" x2="1451" y2="157.138" gradientUnits="userSpaceOnUse">
<stop stop-color="#F5F5F5" stop-opacity="0.9"/>
<stop offset="1" stop-color="white" stop-opacity="0.5"/>
</linearGradient>
</defs>
</svg>
