<svg width="90" height="17" viewBox="0 0 90 17" fill="none" xmlns="http://www.w3.org/2000/svg">
<path d="M22.616 0.556L18.59 16H14.036L11.572 5.836L9.02 16H4.466L0.55 0.556H4.576L6.798 11.798L9.548 0.556H13.684L16.324 11.798L18.568 0.556H22.616ZM35.4367 13.272H29.6727L28.7487 16H24.8107L30.3987 0.556H34.7547L40.3427 16H36.3607L35.4367 13.272ZM34.4687 10.368L32.5547 4.714L30.6627 10.368H34.4687ZM54.4734 0.556V3.57H50.3814V16H46.6194V3.57H42.5274V0.556H54.4734ZM57.0434 8.256C57.0434 6.73067 57.3734 5.374 58.0334 4.186C58.6934 2.98333 59.6101 2.052 60.7834 1.392C61.9714 0.717333 63.3134 0.379999 64.8094 0.379999C66.6428 0.379999 68.2121 0.863999 69.5174 1.832C70.8228 2.8 71.6954 4.12 72.1354 5.792H67.9994C67.6914 5.14667 67.2514 4.65533 66.6794 4.318C66.1221 3.98067 65.4841 3.812 64.7654 3.812C63.6068 3.812 62.6681 4.21533 61.9494 5.022C61.2308 5.82867 60.8714 6.90667 60.8714 8.256C60.8714 9.60533 61.2308 10.6833 61.9494 11.49C62.6681 12.2967 63.6068 12.7 64.7654 12.7C65.4841 12.7 66.1221 12.5313 66.6794 12.194C67.2514 11.8567 67.6914 11.3653 67.9994 10.72H72.1354C71.6954 12.392 70.8228 13.712 69.5174 14.68C68.2121 15.6333 66.6428 16.11 64.8094 16.11C63.3134 16.11 61.9714 15.78 60.7834 15.12C59.6101 14.4453 58.6934 13.514 58.0334 12.326C57.3734 11.138 57.0434 9.78133 57.0434 8.256ZM89.1352 0.556V16H85.3732V9.642H79.5212V16H75.7592V0.556H79.5212V6.606H85.3732V0.556H89.1352Z" fill="white"/>
</svg>
